<svg width="100" height="100" viewBox="0 0 100 100" fill="none" xmlns="http://www.w3.org/2000/svg">
<rect width="100" height="100" rx="50" fill="#589C68"/>
<g clip-path="url(#clip0_373_88)">
<path d="M35.5 28.25C39.6334 28.2493 43.6241 29.762 46.7185 32.5024C49.8129 35.2428 51.7968 39.0214 52.2958 43.1246C53.8715 41.4755 55.7656 40.1635 57.8635 39.2683C59.9613 38.3731 62.2191 37.9132 64.5 37.9167H71.75C72.3909 37.9167 73.0056 38.1713 73.4588 38.6245C73.912 39.0777 74.1666 39.6924 74.1666 40.3333V42.75C74.1666 47.2366 72.3844 51.5394 69.2119 54.7119C66.0394 57.8844 61.7366 59.6667 57.25 59.6667H52.4166V69.3333C52.4166 69.9743 52.162 70.589 51.7088 71.0422C51.2556 71.4954 50.6409 71.75 50 71.75C49.359 71.75 48.7444 71.4954 48.2911 71.0422C47.8379 70.589 47.5833 69.9743 47.5833 69.3333V52.4167H42.75C38.2634 52.4167 33.9606 50.6344 30.7881 47.4619C27.6156 44.2894 25.8333 39.9866 25.8333 35.5V30.6667C25.8333 30.0257 26.0879 29.411 26.5411 28.9578C26.9944 28.5046 27.609 28.25 28.25 28.25H35.5Z" fill="white"/>
</g>
<defs>
<clipPath id="clip0_373_88">
<rect width="58" height="58" fill="white" transform="translate(21 21)"/>
</clipPath>
</defs>
</svg>
