<svg width="128" height="128" viewBox="0 0 128 128" fill="none" xmlns="http://www.w3.org/2000/svg">
<path d="M59.2961 96.918V92.1741V79.6235C59.2961 78.2906 58.2155 77.21 56.8825 77.21H6.88428C5.5513 77.21 4.4707 78.2906 4.4707 79.6235V87.064" stroke="#B9BBC6" stroke-width="1.44814" stroke-linecap="round"/>
<path d="M32.7012 82.5479H9.37994" stroke="#CECFD2" stroke-width="2.41357" stroke-linecap="round"/>
<path d="M42.334 87.4746L12.8756 87.4746" stroke="#CECFD2" stroke-width="2.41357" stroke-linecap="round"/>
<path d="M47.0215 92.4014L23.4568 92.4014" stroke="#CECFD2" stroke-width="2.41357" stroke-linecap="round"/>
<rect x="46.2031" y="80.084" width="8.59203" height="8.62229" rx="2.41357" fill="#D9D9D9"/>
<path d="M105.939 20.9322V28.3726C105.939 29.7056 104.858 30.7862 103.525 30.7862H53.5269C52.1939 30.7862 51.1133 29.7056 51.1133 28.3726V13.4917C51.1133 12.1587 52.1939 11.0781 53.5269 11.0781H57.6099" stroke="#B9BBC6" stroke-width="1.44814" stroke-linecap="round"/>
<path d="M99.9395 16.416H61.6983" stroke="#CECFD2" stroke-width="2.41357" stroke-linecap="round"/>
<path d="M99.9395 21.3428L79.496 21.3428" stroke="#CECFD2" stroke-width="2.41357" stroke-linecap="round"/>
<path d="M99.9395 26.2696L87.4329 26.2695" stroke="#CECFD2" stroke-width="2.41357" stroke-linecap="round"/>
<rect width="12.0467" height="5.78243" transform="matrix(0.705863 0.708348 -0.705863 0.708348 85.6289 74.0586)" fill="#B9BBC6"/>
<rect width="3.37308" height="5.78243" transform="matrix(0.705863 0.708348 -0.705863 0.708348 85.6289 74.0586)" fill="#8B8D98"/>
<path d="M91.0705 78.8382C91.4469 78.4605 92.0571 78.4605 92.4334 78.8382L120.659 107.163C122.164 108.673 122.164 111.123 120.659 112.634L119.988 113.307C118.482 114.817 116.042 114.817 114.536 113.307L86.311 84.9821C85.9347 84.6044 85.9347 83.9921 86.311 83.6144L91.0705 78.8382Z" fill="#8B8D98"/>
<path d="M90.7306 81.2278C91.107 80.8501 91.7172 80.8501 92.0936 81.2278L119.473 108.704C119.943 109.175 119.943 109.939 119.473 110.41C119.003 110.882 118.242 110.882 117.772 110.41L90.3929 82.9345C90.0165 82.5568 90.0165 81.9444 90.3929 81.5667L90.7306 81.2278Z" fill="white"/>
<path d="M39.2002 31.2217C51.8801 18.4972 72.4383 18.4972 85.1182 31.2217C97.7981 43.9462 97.7981 64.5772 85.1182 77.3018C72.4383 90.0261 51.8801 90.0261 39.2002 77.3018C36.0486 74.1391 33.6806 70.4875 32.0957 66.5908H38.9932C40.1861 68.8463 41.729 70.9645 43.6221 72.8643C53.8599 83.138 70.4585 83.138 80.6963 72.8643C90.9341 62.5904 90.9341 45.9331 80.6963 35.6592C70.4585 25.3853 53.8599 25.3854 43.6221 35.6592C41.3183 37.9711 39.5345 40.607 38.2676 43.4199H31.5332C33.0955 38.9657 35.6507 34.7837 39.2002 31.2217Z" fill="#589C68"/>
<path d="M44.3814 43.4199H20.5796C19.2466 43.4199 18.166 44.5005 18.166 45.8335V64.1767C18.166 65.5096 19.2466 66.5902 20.5796 66.5902H49.4322M57.6095 43.4199H80.2093C81.5423 43.4199 82.6229 44.5005 82.6229 45.8335V64.1767C82.6229 65.5096 81.5423 66.5902 80.2093 66.5902H74.9263" stroke="#B9BBC6" stroke-width="1.44814" stroke-linecap="round"/>
<path d="M68.1931 48.2471L73.4844 53.5569M73.4844 48.2471L68.1931 53.5569" stroke="#BD1313" stroke-width="2.41357" stroke-linecap="round"/>
<path d="M51.3574 49.6953H23.9392" stroke="#CECFD2" stroke-width="2.41357" stroke-linecap="round"/>
<path d="M58.5723 55.4883L23.9387 55.4883" stroke="#CECFD2" stroke-width="2.41357" stroke-linecap="round"/>
<path d="M68.1914 61.2803L23.9375 61.2803" stroke="#CECFD2" stroke-width="2.41357" stroke-linecap="round"/>
</svg>
