<svg width="28" height="28" viewBox="0 0 28 28" fill="none" xmlns="http://www.w3.org/2000/svg">
<path d="M19.1648 4.9185V6.39376C19.1648 7.42236 18.3275 8.2597 17.2989 8.2597H16.1122V9.44632C16.1122 10.4749 15.2749 11.3123 14.2463 11.3123H12.771C11.7424 11.3123 10.9051 10.4749 10.9051 9.44632V8.2597H9.71848C8.68988 8.2597 7.85254 7.42236 7.85254 6.39376V4.9185C7.85254 3.8899 8.68988 3.05256 9.71848 3.05256H10.9051V1.86594C10.9051 0.83734 11.7424 0 12.771 0H14.2463C15.2749 0 16.1122 0.83734 16.1122 1.86594V3.05256H17.2989C18.3275 3.05256 19.1648 3.8899 19.1648 4.9185Z" fill="white"/>
<path d="M26.3618 10.8496C26.1066 10.0912 25.4179 9.5166 24.4719 9.5166C15.8102 9.72652 9.78868 18.3172 12.3887 26.4645C12.5147 26.8593 13.0547 26.9056 13.2471 26.5386C16.1363 21.029 18.3124 18.5942 18.4068 18.2818C18.651 17.4703 18.6514 16.6293 18.4082 15.8497C18.3314 15.6037 18.4686 15.3421 18.7145 15.2654C18.9607 15.1885 19.2221 15.3259 19.2988 15.5718C19.4261 15.9799 19.4988 16.4012 19.5178 16.8268C20.4021 15.6912 21.3232 14.5851 22.2764 13.5148C22.4477 13.3224 22.7426 13.3053 22.9349 13.4768C23.1274 13.6481 23.1444 13.943 22.973 14.1353C21.4678 15.8254 20.0441 17.6064 18.7202 19.4523C19.4663 19.2771 20.2206 19.3025 20.9458 19.5241C21.1837 19.5968 21.3339 19.8436 21.2742 20.0852C21.2092 20.3476 20.9381 20.4984 20.6836 20.4195C19.6936 20.1137 18.6924 20.2922 17.8136 20.8231C17.7564 20.8577 17.7081 20.905 17.6708 20.9604C16.336 22.9381 15.0679 25.0553 13.8933 27.3178C13.7303 27.6318 13.9635 28.0074 14.3173 27.9996C23.0783 27.8072 29.1226 19.0508 26.3618 10.8496Z" fill="white"/>
<path d="M8.62883 15.8497C8.70521 15.6036 8.56818 15.3424 8.32211 15.2654C8.07663 15.1885 7.81481 15.326 7.73784 15.5715C7.61131 15.9774 7.53842 16.3966 7.51918 16.8199C6.63519 15.6852 5.71505 14.5826 4.75992 13.5143C4.58848 13.3219 4.29343 13.3056 4.10101 13.4776C3.90917 13.649 3.89284 13.9441 4.06427 14.1359C5.57335 15.824 6.99555 17.6001 8.32211 19.4527C7.57894 19.277 6.81432 19.3012 6.07832 19.528C5.83167 19.6043 5.69405 19.8656 5.76986 20.1116C5.84624 20.3577 6.10748 20.4959 6.35355 20.4195C7.3927 20.0996 8.4269 20.3132 9.31339 20.8796C9.82624 21.6379 10.3225 22.4076 10.8015 23.1885C10.8418 23.254 10.8646 23.3285 10.8692 23.4053C10.9459 24.6776 11.2029 25.9628 11.6702 27.2542C11.7899 27.585 11.5155 27.9252 11.1672 27.876C3.28851 26.7648 -1.9251 18.5785 0.674677 10.8496C0.930135 10.092 1.61832 9.5166 2.56511 9.5166C6.67262 9.61614 10.4219 11.649 12.7853 14.9494C12.8925 15.0992 12.9025 15.2986 12.8087 15.4571C11.8975 16.9983 11.3095 18.6536 11.0321 20.32C10.9628 20.736 10.4196 20.8518 10.1848 20.5014C9.24226 19.0945 8.64941 18.3301 8.62999 18.2819C8.38573 17.4702 8.38573 16.6293 8.62883 15.8497Z" fill="white"/>
</svg>
