<svg width="24" height="24" viewBox="0 0 24 24" fill="none" xmlns="http://www.w3.org/2000/svg">
<g clip-path="url(#clip0_295_417)">
<path d="M17.5 11.9141L8.70703 20.707C8.51952 20.8944 8.2651 21 8 21H4C3.44788 21 3.00026 20.5521 3 20V16L3.00488 15.9014C3.02762 15.6726 3.12904 15.457 3.29297 15.293L12.0859 6.5L17.5 11.9141ZM16.5 3.6709C17.0026 3.6709 17.5005 3.77059 17.9648 3.96289C18.4292 4.15526 18.8516 4.43758 19.207 4.79297C19.5624 5.14841 19.8448 5.57078 20.0371 6.03516C20.2294 6.49943 20.3281 6.9975 20.3281 7.5C20.3281 8.00259 20.2294 8.50148 20.0371 8.96582C19.8447 9.42994 19.5623 9.85175 19.207 10.207L18.9141 10.5L13.5 5.08594L13.793 4.79297C14.1484 4.43758 14.5708 4.15526 15.0352 3.96289C15.4995 3.77059 15.9974 3.6709 16.5 3.6709Z" fill="#1E1F24"/>
</g>
<defs>
<clipPath id="clip0_295_417">
<rect width="24" height="24" fill="white"/>
</clipPath>
</defs>
</svg>
