<svg width="24" height="24" viewBox="0 0 24 24" fill="none" xmlns="http://www.w3.org/2000/svg">
<path d="M6 5V4C6 3.45 6.196 2.97933 6.588 2.588C6.98 2.19667 7.45067 2.00067 8 2H16C16.55 2 17.021 2.196 17.413 2.588C17.805 2.98 18.0007 3.45067 18 4V5H6ZM12 15.5C12.4167 15.5 12.771 15.3543 13.063 15.063C13.355 14.7717 13.5007 14.4173 13.5 14C13.5 13.5833 13.3543 13.2293 13.063 12.938C12.7717 12.6467 12.4173 12.5007 12 12.5C11.5833 12.5 11.2293 12.646 10.938 12.938C10.6467 13.23 10.5007 13.584 10.5 14C10.5 14.4167 10.646 14.771 10.938 15.063C11.23 15.355 11.584 15.5007 12 15.5ZM8 20V11L6.325 8.5C6.20833 8.33333 6.125 8.15833 6.075 7.975C6.025 7.79167 6 7.6 6 7.4V7H18V7.4C18 7.6 17.975 7.79167 17.925 7.975C17.875 8.15833 17.7917 8.33333 17.675 8.5L16 11V20C16 20.55 15.8043 21.021 15.413 21.413C15.0217 21.805 14.5507 22.0007 14 22H10C9.45 22 8.97933 21.8043 8.588 21.413C8.19667 21.0217 8.00067 20.5507 8 20Z" fill="white"/>
</svg>
