<svg width="20" height="20" viewBox="0 0 20 20" fill="none" xmlns="http://www.w3.org/2000/svg">
<path d="M14.9998 6.66667C14.9998 7.10869 14.8242 7.53262 14.5117 7.84518C14.1991 8.15774 13.7752 8.33333 13.3332 8.33333C12.8911 8.33333 12.4672 8.15774 12.1547 7.84518C11.8421 7.53262 11.6665 7.10869 11.6665 6.66667C11.6665 6.22464 11.8421 5.80072 12.1547 5.48816C12.4672 5.17559 12.8911 5 13.3332 5C13.7752 5 14.1991 5.17559 14.5117 5.48816C14.8242 5.80072 14.9998 6.22464 14.9998 6.66667Z" fill="white"/>
<path fill-rule="evenodd" clip-rule="evenodd" d="M9.54242 2H9.45758C7.73926 2 6.39302 2 5.34223 2.1414C4.26763 2.28577 3.41926 2.58791 2.75321 3.25321C2.08716 3.91926 1.78577 4.76763 1.6414 5.84298C1.5 6.89302 1.5 8.23926 1.5 9.95758V10.0424C1.5 11.7607 1.5 13.107 1.6414 14.1578C1.78577 15.2324 2.08791 16.0807 2.75321 16.7468C3.41926 17.4128 4.26763 17.7142 5.34298 17.8586C6.39302 18 7.73926 18 9.45758 18H9.54242C11.2607 18 12.607 18 13.6578 17.8586C14.7324 17.7142 15.5807 17.4121 16.2468 16.7468C16.9128 16.0807 17.2142 15.2324 17.3586 14.157C17.5 13.107 17.5 11.7607 17.5 10.0424V9.95758C17.5 8.23926 17.5 6.89302 17.3586 5.84223C17.2142 4.76763 16.9121 3.91926 16.2468 3.25321C15.5807 2.58716 14.7324 2.28577 13.657 2.1414C12.607 2 11.2607 2 9.54242 2ZM3.54279 4.04279C3.96698 3.6186 4.54 3.37526 5.49181 3.24726C6.45926 3.11777 7.73033 3.11628 9.5 3.11628C11.2697 3.11628 12.5407 3.11777 13.5082 3.24726C14.46 3.37526 15.0338 3.61935 15.458 4.04279C15.8814 4.46698 16.1247 5.04 16.2527 5.99181C16.3822 6.95926 16.3837 8.23033 16.3837 10L16.383 10.9526L16.2178 10.9302C14.1013 10.637 12.1649 11.7369 11.1781 13.3957C9.90558 10.1771 6.54409 7.98177 2.78819 8.5213L2.62 8.54512C2.62819 7.49954 2.65647 6.67051 2.74726 5.99181C2.87526 5.04 3.11935 4.46698 3.54279 4.04279Z" fill="white"/>
</svg>
