<svg width="24" height="24" viewBox="0 0 24 24" fill="none" xmlns="http://www.w3.org/2000/svg">
<g clip-path="url(#clip0_311_3646)">
<path d="M10.0006 18.9997V13.9997H14.0006V18.9997C14.0006 19.5497 14.4506 19.9997 15.0006 19.9997H18.0006C18.5506 19.9997 19.0006 19.5497 19.0006 18.9997V11.9997H20.7006C21.1606 11.9997 21.3806 11.4297 21.0306 11.1297L12.6706 3.59973C12.2906 3.25973 11.7106 3.25973 11.3306 3.59973L2.97059 11.1297C2.63059 11.4297 2.84059 11.9997 3.30059 11.9997H5.00059V18.9997C5.00059 19.5497 5.45059 19.9997 6.00059 19.9997H9.00059C9.55059 19.9997 10.0006 19.5497 10.0006 18.9997Z" fill="#80828D"/>
</g>
<defs>
<clipPath id="clip0_311_3646">
<rect width="24" height="24" fill="white"/>
</clipPath>
</defs>
</svg>
