<svg width="141" height="74" viewBox="0 0 141 74" fill="none" xmlns="http://www.w3.org/2000/svg">
<rect x="16.9" y="15.9" width="107.2" height="42.2" rx="21.1" fill="#589C68"/>
<rect x="16.9" y="15.9" width="107.2" height="42.2" rx="21.1" stroke="#589C68" stroke-width="1.8"/>
<g clip-path="url(#clip0_295_446)">
<path d="M46.0001 43.9997V38.9997H50.0001V43.9997C50.0001 44.5497 50.4501 44.9997 51.0001 44.9997H54.0001C54.5501 44.9997 55.0001 44.5497 55.0001 43.9997V36.9997H56.7001C57.1601 36.9997 57.3801 36.4297 57.0301 36.1297L48.6701 28.5997C48.2901 28.2597 47.7101 28.2597 47.3301 28.5997L38.9701 36.1297C38.6301 36.4297 38.8401 36.9997 39.3001 36.9997H41.0001V43.9997C41.0001 44.5497 41.4501 44.9997 42.0001 44.9997H45.0001C45.5501 44.9997 46.0001 44.5497 46.0001 43.9997Z" fill="white"/>
</g>
<path d="M73.3174 42V32.2H74.7174V42H73.3174ZM67.0874 42V32.2H68.4874V42H67.0874ZM68.2494 37.576V36.428H73.6254V37.576H68.2494ZM79.9171 42.168C79.2545 42.168 78.6571 42.014 78.1251 41.706C77.6025 41.398 77.1871 40.9687 76.8791 40.418C76.5805 39.858 76.4311 39.214 76.4311 38.486C76.4311 37.7393 76.5851 37.0907 76.8931 36.54C77.2011 35.98 77.6211 35.546 78.1531 35.238C78.6851 34.93 79.2825 34.776 79.9451 34.776C80.6171 34.776 81.2145 34.93 81.7371 35.238C82.2598 35.546 82.6705 35.9753 82.9691 36.526C83.2771 37.0767 83.4311 37.7253 83.4311 38.472C83.4311 39.2187 83.2771 39.8673 82.9691 40.418C82.6705 40.9687 82.2551 41.398 81.7231 41.706C81.1911 42.014 80.5891 42.168 79.9171 42.168ZM79.9171 40.964C80.2998 40.964 80.6451 40.8707 80.9531 40.684C81.2705 40.4973 81.5225 40.222 81.7091 39.858C81.9051 39.4847 82.0031 39.0227 82.0031 38.472C82.0031 37.9213 81.9098 37.464 81.7231 37.1C81.5365 36.7267 81.2845 36.4467 80.9671 36.26C80.6591 36.0733 80.3185 35.98 79.9451 35.98C79.5718 35.98 79.2265 36.0733 78.9091 36.26C78.5918 36.4467 78.3351 36.7267 78.1391 37.1C77.9525 37.464 77.8591 37.9213 77.8591 38.472C77.8591 39.0227 77.9525 39.4847 78.1391 39.858C78.3351 40.222 78.5871 40.4973 78.8951 40.684C79.2125 40.8707 79.5531 40.964 79.9171 40.964ZM85.078 42V34.944H86.338L86.436 35.938C86.66 35.574 86.9586 35.2893 87.332 35.084C87.7053 34.8787 88.1253 34.776 88.592 34.776C88.9466 34.776 89.2686 34.8273 89.558 34.93C89.8473 35.0233 90.104 35.168 90.328 35.364C90.552 35.56 90.734 35.8027 90.874 36.092C91.126 35.6813 91.462 35.3593 91.882 35.126C92.3113 34.8927 92.764 34.776 93.24 34.776C93.8093 34.776 94.2993 34.8927 94.71 35.126C95.1206 35.35 95.4333 35.6907 95.648 36.148C95.8626 36.596 95.97 37.156 95.97 37.828V42H94.584V37.968C94.584 37.3147 94.4486 36.82 94.178 36.484C93.9166 36.148 93.5293 35.98 93.016 35.98C92.6706 35.98 92.3626 36.0687 92.092 36.246C91.8213 36.4233 91.6066 36.68 91.448 37.016C91.2986 37.352 91.224 37.7627 91.224 38.248V42H89.824V37.968C89.824 37.3147 89.6886 36.82 89.418 36.484C89.1566 36.148 88.7693 35.98 88.256 35.98C87.9293 35.98 87.6306 36.0687 87.36 36.246C87.0893 36.4233 86.8746 36.68 86.716 37.016C86.5573 37.352 86.478 37.7627 86.478 38.248V42H85.078ZM100.971 42.168C100.299 42.168 99.7018 42.014 99.1791 41.706C98.6565 41.398 98.2458 40.9687 97.9471 40.418C97.6578 39.8673 97.5131 39.228 97.5131 38.5C97.5131 37.7533 97.6578 37.1047 97.9471 36.554C98.2458 35.994 98.6565 35.56 99.1791 35.252C99.7018 34.9347 100.308 34.776 100.999 34.776C101.69 34.776 102.282 34.93 102.777 35.238C103.272 35.546 103.654 35.9567 103.925 36.47C104.196 36.974 104.331 37.534 104.331 38.15C104.331 38.2433 104.326 38.346 104.317 38.458C104.317 38.5607 104.312 38.6773 104.303 38.808H98.5351V37.814H102.931C102.903 37.226 102.707 36.7687 102.343 36.442C101.979 36.106 101.526 35.938 100.985 35.938C100.602 35.938 100.252 36.0267 99.9351 36.204C99.6178 36.372 99.3611 36.624 99.1651 36.96C98.9785 37.2867 98.8851 37.702 98.8851 38.206V38.598C98.8851 39.1207 98.9785 39.564 99.1651 39.928C99.3611 40.2827 99.6178 40.5533 99.9351 40.74C100.252 40.9173 100.598 41.006 100.971 41.006C101.419 41.006 101.788 40.908 102.077 40.712C102.366 40.516 102.581 40.25 102.721 39.914H104.121C104 40.3433 103.794 40.7307 103.505 41.076C103.216 41.412 102.856 41.678 102.427 41.874C102.007 42.07 101.522 42.168 100.971 42.168Z" fill="white"/>
<defs>
<clipPath id="clip0_295_446">
<rect width="24" height="24" fill="white" transform="translate(36 25)"/>
</clipPath>
</defs>
</svg>
