<svg width="24" height="24" viewBox="0 0 24 24" fill="none" xmlns="http://www.w3.org/2000/svg">
<path d="M9.00043 2.5C9.00043 2.5 15.6004 9.58 16.8104 14.19C16.3304 14.67 15.6793 14.9396 15.0004 14.9396C14.3216 14.9396 13.6705 14.67 13.1904 14.19L13.0004 14L12.8104 14.19C12.3304 14.67 11.6793 14.9396 11.0004 14.9396C10.3216 14.9396 9.67051 14.67 9.19043 14.19L9.00043 14L8.81043 14.19C8.33035 14.67 7.67929 14.9396 7.00043 14.9396C6.32157 14.9396 5.67051 14.67 5.19043 14.19L5.00043 14L4.81043 14.19C4.33035 14.67 3.67929 14.9396 3.00043 14.9396C2.32157 14.9396 1.67051 14.67 1.19043 14.19C2.40043 9.58 9.00043 2.5 9.00043 2.5Z" fill="url(#paint0_linear_354_218)"/>
<path d="M8.99977 23.5C3.59477 23.5 0.0947703 18.26 1.18977 14.19C1.66985 14.67 2.32091 14.9396 2.99977 14.9396C3.67863 14.9396 4.32969 14.67 4.80977 14.19L4.99977 14L5.18977 14.19C5.66985 14.67 6.32091 14.9396 6.99977 14.9396C7.67863 14.9396 8.32969 14.67 8.80977 14.19L8.99977 14L9.18977 14.19C9.66985 14.67 10.3209 14.9396 10.9998 14.9396C11.6786 14.9396 12.3297 14.67 12.8098 14.19L12.9998 14L13.1898 14.19C13.6698 14.67 14.3209 14.9396 14.9998 14.9396C15.6786 14.9396 16.3297 14.67 16.8098 14.19C17.9048 18.27 14.3948 23.5 8.99977 23.5Z" fill="url(#paint1_linear_354_218)"/>
<path d="M16.5 7.5C16.4007 7.50058 16.3035 7.47157 16.2207 7.41667C16.1379 7.36177 16.0734 7.28346 16.0353 7.19174C15.9972 7.10002 15.9873 6.99903 16.0069 6.90166C16.0264 6.80429 16.0745 6.71494 16.145 6.645L21.645 1.145C21.6916 1.09838 21.747 1.0614 21.8079 1.03617C21.8688 1.01094 21.9341 0.997955 22 0.997955C22.0659 0.997955 22.1312 1.01094 22.1921 1.03617C22.253 1.0614 22.3084 1.09838 22.355 1.145C22.4016 1.19162 22.4386 1.24697 22.4638 1.30788C22.4891 1.36879 22.502 1.43407 22.502 1.5C22.502 1.56593 22.4891 1.63121 22.4638 1.69213C22.4386 1.75304 22.4016 1.80838 22.355 1.855L16.855 7.355C16.8083 7.40134 16.7529 7.438 16.692 7.46289C16.631 7.48777 16.5658 7.50038 16.5 7.5ZM21.5 8C21.2033 8 20.9133 7.91203 20.6666 7.7472C20.42 7.58238 20.2277 7.34811 20.1142 7.07403C20.0007 6.79994 19.9709 6.49834 20.0288 6.20737C20.0867 5.91639 20.2296 5.64912 20.4393 5.43934C20.6491 5.22956 20.9164 5.0867 21.2074 5.02882C21.4983 4.97094 21.7999 5.00065 22.074 5.11418C22.3481 5.22771 22.5824 5.41997 22.7472 5.66665C22.912 5.91332 23 6.20333 23 6.5C23 6.89783 22.842 7.27936 22.5607 7.56066C22.2794 7.84197 21.8978 8 21.5 8ZM21.5 6C21.4011 6 21.3044 6.02933 21.2222 6.08427C21.14 6.13921 21.0759 6.2173 21.0381 6.30866C21.0002 6.40002 20.9903 6.50056 21.0096 6.59755C21.0289 6.69454 21.0765 6.78363 21.1464 6.85355C21.2164 6.92348 21.3055 6.9711 21.4025 6.99039C21.4994 7.00969 21.6 6.99978 21.6913 6.96194C21.7827 6.9241 21.8608 6.86001 21.9157 6.77779C21.9707 6.69556 22 6.59889 22 6.5C22 6.36739 21.9473 6.24022 21.8536 6.14645C21.7598 6.05268 21.6326 6 21.5 6ZM17 3.5C16.7033 3.5 16.4133 3.41203 16.1666 3.24721C15.92 3.08238 15.7277 2.84811 15.6142 2.57403C15.5006 2.29994 15.4709 1.99834 15.5288 1.70737C15.5867 1.41639 15.7296 1.14912 15.9393 0.939341C16.1491 0.729562 16.4164 0.586701 16.7074 0.528823C16.9983 0.470945 17.2999 0.50065 17.574 0.614181C17.8481 0.727713 18.0824 0.919972 18.2472 1.16665C18.412 1.41332 18.5 1.70333 18.5 2C18.5 2.39783 18.342 2.77936 18.0607 3.06066C17.7794 3.34197 17.3978 3.5 17 3.5ZM17 1.5C16.9011 1.5 16.8044 1.52933 16.7222 1.58427C16.64 1.63921 16.5759 1.7173 16.5381 1.80866C16.5002 1.90002 16.4903 2.00056 16.5096 2.09755C16.5289 2.19454 16.5765 2.28363 16.6464 2.35355C16.7164 2.42348 16.8055 2.4711 16.9025 2.49039C16.9994 2.50969 17.1 2.49978 17.1913 2.46194C17.2827 2.4241 17.3608 2.36001 17.4157 2.27779C17.4707 2.19556 17.5 2.09889 17.5 2C17.5 1.86739 17.4473 1.74022 17.3536 1.64645C17.2598 1.55268 17.1326 1.5 17 1.5Z" fill="#FE9661"/>
<defs>
<linearGradient id="paint0_linear_354_218" x1="9.00043" y1="14.94" x2="9.00043" y2="2.5" gradientUnits="userSpaceOnUse">
<stop stop-color="#D3E6F5"/>
</linearGradient>
<linearGradient id="paint1_linear_354_218" x1="8.99977" y1="23.5" x2="8.99977" y2="14" gradientUnits="userSpaceOnUse">
<stop stop-color="#54A5FF"/>
</linearGradient>
</defs>
</svg>
