<svg width="34" height="31" viewBox="0 0 34 31" fill="none" xmlns="http://www.w3.org/2000/svg">
<g clip-path="url(#clip0_295_365)">
<path d="M25.9602 15.5996C25.9602 15.5996 27.2302 18.7196 21.7702 20.8096C18.8002 21.9496 16.5202 24.8596 19.2402 29.3696C19.4702 27.3596 20.4302 22.9196 24.5902 21.8996C24.5902 21.8996 20.7202 23.3496 20.3802 29.8996C22.3702 30.1796 27.0302 30.3696 28.4202 26.3196C30.2502 20.9696 25.9602 15.5996 25.9602 15.5996Z" fill="white"/>
<path d="M28 12.9402C28 11.0802 26.5 9.5902 24.65 9.5902H21.73L20.11 7.1602C19.5 6.2402 18.44 5.7002 17.34 5.7002H10.65C9.55 5.7002 8.49 6.2402 7.88 7.1602L6.26 9.5902H3.34C1.49 9.5902 0 11.0802 0 12.9402V24.7502C0 26.6002 1.49 28.1002 3.34 28.1002H17.47C17.47 28.1002 17.43 28.0302 17.43 28.0002C16.94 26.8102 16.79 25.7302 16.91 24.7802C16.01 25.1502 15.03 25.3602 14 25.3602C9.83 25.3602 6.45 21.9802 6.45 17.8102C6.45 13.6402 9.83 10.2902 14 10.2902C18.17 10.2902 21.54 13.6702 21.54 17.8402C21.54 18.5902 21.43 19.3202 21.22 20.0102C26.81 17.7902 25.76 14.5802 25.67 14.3302C25.82 14.5202 27.1 16.2002 28 18.5702V12.9402ZM22.46 17.0402C22.06 17.0402 21.74 16.7202 21.74 16.3202C21.74 15.9202 22.06 15.6002 22.46 15.6002C22.86 15.6002 23.18 15.9302 23.18 16.3202C23.18 16.7102 22.86 17.0402 22.46 17.0402ZM24.22 14.3102H22.88C22.33 14.2802 21.91 13.8202 21.94 13.2702C21.97 12.7602 22.36 12.3602 22.88 12.3302H24.1C24.65 12.3002 25.1 12.7302 25.13 13.2702C25.16 13.8202 24.77 14.2802 24.22 14.3102Z" fill="white"/>
<path d="M18.0498 16.7199C18.0498 16.7199 17.9898 16.7199 17.9598 16.7199C17.5298 16.7199 17.1798 16.3699 17.1798 15.9399C17.1798 15.7199 17.2698 15.5199 17.4198 15.3799C16.6498 14.3199 15.3998 13.6299 13.9998 13.6299C11.6798 13.6299 9.7998 15.5199 9.7998 17.8299C9.7998 20.1399 11.6798 21.9999 13.9998 21.9999C15.8598 21.9999 17.4498 20.7699 17.9898 19.0899C17.9498 19.0399 17.9298 18.9799 17.9298 18.9099C17.9298 18.7799 17.9998 18.6699 18.1098 18.6099H18.1198C18.1698 18.3499 18.1998 18.0799 18.1998 17.7999C18.1998 17.4199 18.1498 17.0599 18.0498 16.7099V16.7199ZM16.8698 19.7899C16.6198 19.7899 16.4298 19.5999 16.4298 19.3499C16.4298 19.0999 16.6198 18.9199 16.8698 18.9199C17.1198 18.9199 17.2998 19.1099 17.2998 19.3499C17.2998 19.5899 17.1098 19.7899 16.8698 19.7899Z" fill="white"/>
<path d="M18.4498 18.9202C18.4498 19.0402 18.3498 19.1302 18.2398 19.1302C18.1698 19.1302 18.1098 19.1002 18.0698 19.0402C18.0398 19.0102 18.0298 18.9602 18.0298 18.9202C18.0298 18.8302 18.0798 18.7502 18.1498 18.7102C18.1498 18.7102 18.2098 18.7002 18.2298 18.7002C18.3498 18.7002 18.4398 18.8002 18.4398 18.9202H18.4498Z" fill="white"/>
<path d="M20.6201 17.7305C20.6201 17.8705 20.5001 17.9805 20.3701 17.9805C20.2301 17.9805 20.1201 17.8705 20.1201 17.7305C20.1201 17.5905 20.2301 17.4805 20.3701 17.4805C20.5001 17.4805 20.6201 17.5905 20.6201 17.7305Z" fill="white"/>
<path d="M18.6302 15.9398C18.6302 16.2698 18.3602 16.5398 18.0302 16.5398C17.7002 16.5398 17.4302 16.2698 17.4302 15.9398C17.4302 15.6098 17.7002 15.3398 18.0302 15.3398C18.3602 15.3398 18.6302 15.6198 18.6302 15.9398Z" fill="white"/>
</g>
<defs>
<clipPath id="clip0_295_365">
<rect width="33.54" height="30.03" fill="white"/>
</clipPath>
</defs>
</svg>
