<svg width="35" height="35" viewBox="0 0 35 35" fill="none" xmlns="http://www.w3.org/2000/svg">
<path d="M17.1002 24.4249C21.1542 24.4249 24.4406 21.1385 24.4406 17.0845C24.4406 13.0305 21.1542 9.74414 17.1002 9.74414C13.0462 9.74414 9.75977 13.0305 9.75977 17.0845C9.75977 21.1385 13.0462 24.4249 17.1002 24.4249Z" fill="white"/>
<path d="M33.9336 16.5447C33.8112 16.4475 31.1688 14.4495 28.3572 14.0679C30.6036 12.3291 31.896 9.28712 31.95 9.13586C32.0328 8.94513 32.0184 8.71829 31.914 8.53468C31.806 8.35108 31.6224 8.22513 31.41 8.19991C31.2516 8.17829 27.9684 7.76793 25.3368 8.84793C26.4168 6.22351 26.0136 2.93306 25.992 2.78189C25.9632 2.56946 25.8336 2.37865 25.65 2.27424C25.4664 2.16631 25.2468 2.15189 25.0488 2.23468C24.9048 2.29586 21.8484 3.58829 20.1168 5.83829C19.7316 3.01946 17.7444 0.373513 17.6472 0.251081C17.388 -0.0836938 16.8192 -0.0836938 16.56 0.251081C16.4628 0.373513 14.472 3.01946 14.0904 5.83829C12.3516 3.58829 9.30241 2.29586 9.1584 2.23468C8.96041 2.15189 8.7336 2.16631 8.55 2.27424C8.3664 2.37865 8.24041 2.56946 8.2152 2.77468C8.1936 2.93306 7.7832 6.22351 8.8632 8.84793C6.23881 7.77513 2.95561 8.17829 2.79721 8.19991C2.5848 8.22513 2.40119 8.35108 2.2896 8.53468C2.18881 8.71829 2.16721 8.94513 2.25 9.13586C2.31119 9.28712 3.5964 12.3291 5.8464 14.0679C3.0384 14.4495 0.388806 16.4475 0.273604 16.5447C0.104392 16.6671 0 16.8723 0 17.0847C0 17.2971 0.104392 17.5023 0.273604 17.6247C0.388806 17.7219 3.0384 19.7163 5.8464 20.1014C3.5964 21.8367 2.31119 24.8823 2.25 25.0335C2.16721 25.2242 2.18881 25.4511 2.28959 25.6347C2.40119 25.8183 2.5848 25.9407 2.79721 25.9695C2.86561 25.9767 3.5352 26.0667 4.48561 26.0667C5.70599 26.0667 7.38 25.9299 8.85599 25.3251C7.79041 27.9531 8.1936 31.2363 8.2152 31.3947C8.24041 31.5999 8.3664 31.7907 8.55 31.8914C8.658 31.9527 8.7768 31.9886 8.892 31.9886C8.98201 31.9886 9.0684 31.9671 9.1584 31.9347C9.30241 31.8735 12.3516 30.5811 14.0904 28.3275C14.472 31.1463 16.4628 33.7959 16.56 33.9183C16.6896 34.0803 16.8876 34.1847 17.1 34.1847C17.3124 34.1847 17.5176 34.0803 17.6472 33.9183C17.7444 33.7959 19.7316 31.1463 20.1168 28.3275C21.8484 30.5811 24.9048 31.8735 25.0488 31.9347C25.1316 31.9671 25.218 31.9886 25.308 31.9886C25.4304 31.9886 25.5456 31.9527 25.65 31.8914C25.8336 31.7907 25.9632 31.5999 25.992 31.3947C26.0136 31.2363 26.4168 27.9459 25.3368 25.3179C26.8056 25.9227 28.494 26.0667 29.7216 26.0667C30.672 26.0667 31.3416 25.9767 31.41 25.9695C31.6224 25.9407 31.806 25.8183 31.914 25.6347C32.0184 25.4511 32.0328 25.2242 31.95 25.0335C31.896 24.8823 30.6036 21.8367 28.3572 20.1014C31.1688 19.7163 33.8112 17.7219 33.9336 17.6247C34.1028 17.5023 34.2 17.2971 34.2 17.0847C34.2 16.8723 34.1028 16.6671 33.9336 16.5447ZM17.1 25.7931C12.2976 25.7931 8.3916 21.8871 8.3916 17.0847C8.3916 12.2823 12.2976 8.37631 17.1 8.37631C21.9024 8.37631 25.8084 12.2823 25.8084 17.0847C25.8084 21.8871 21.9024 25.7931 17.1 25.7931Z" fill="white"/>
</svg>
