<svg width="40" height="40" viewBox="0 0 40 40" fill="none" xmlns="http://www.w3.org/2000/svg">
<circle cx="20" cy="20" r="20" fill="#EA4A4A" fill-opacity="0.1"/>
<g clip-path="url(#clip0_295_405)">
<path d="M20 9C22.652 9.00005 25.195 10.065 27.0703 11.96C28.9062 13.8149 29.9569 16.3183 29.999 18.9414C30.0287 20.7891 29.5535 22.5924 28.6514 24.167C27.9201 22.3127 26.1141 21 24 21C23.5177 21 23.0516 21.0689 22.6104 21.1963C23.075 20.6041 23.3329 19.8687 23.333 19.1055C23.333 18.2122 22.9815 17.3553 22.3564 16.7236C21.7314 16.092 20.884 15.7364 20 15.7363C19.5624 15.7363 19.1289 15.824 18.7246 15.9932C18.3202 16.1624 17.9521 16.4109 17.6426 16.7236C17.3332 17.0363 17.0874 17.4079 16.9199 17.8164C16.7525 18.2249 16.667 18.6633 16.667 19.1055C16.6671 19.5475 16.7526 19.9852 16.9199 20.3936C17.0874 20.8021 17.3332 21.1736 17.6426 21.4863C17.9521 21.7991 18.3202 22.0475 18.7246 22.2168C19.1289 22.386 19.5624 22.4736 20 22.4736C20.1664 22.4736 20.3315 22.4602 20.4941 22.4355C19.572 23.3426 19 24.6044 19 26C19 28.2663 20.5081 30.1794 22.5752 30.793L22.3564 31.0146C21.7584 31.6185 20.9553 31.9698 20.1104 31.998C19.2653 32.0262 18.4409 31.7288 17.8047 31.166L17.6445 31.0146L12.9287 26.25C11.0536 24.3551 10.0001 21.7852 10 19.1055C10 16.4256 11.0535 13.855 12.9287 11.96C14.804 10.0649 17.3479 9 20 9Z" fill="#FF566F"/>
<path d="M22.7 24C23.4269 23.9999 24.1287 24.2585 24.6729 24.7271C25.2171 25.1956 25.566 25.8417 25.6537 26.5432C25.9308 26.2612 26.264 26.0369 26.6329 25.8839C27.0018 25.7308 27.3989 25.6522 27.8 25.6528H29.075C29.1877 25.6528 29.2958 25.6963 29.3755 25.7738C29.4552 25.8513 29.5 25.9564 29.5 26.066V26.4792C29.5 27.2463 29.1866 27.982 28.6286 28.5244C28.0707 29.0668 27.314 29.3715 26.525 29.3715H25.675V31.0243C25.675 31.1339 25.6302 31.239 25.5505 31.3165C25.4708 31.394 25.3627 31.4375 25.25 31.4375C25.1373 31.4375 25.0292 31.394 24.9495 31.3165C24.8698 31.239 24.825 31.1339 24.825 31.0243V28.1319H23.975C23.186 28.1319 22.4293 27.8272 21.8714 27.2848C21.3134 26.7424 21 26.0067 21 25.2396V24.4132C21 24.3036 21.0448 24.1985 21.1245 24.121C21.2042 24.0435 21.3123 24 21.425 24H22.7Z" fill="#FF566F"/>
</g>
<defs>
<clipPath id="clip0_295_405">
<rect width="24" height="24" fill="white" transform="translate(8 8)"/>
</clipPath>
</defs>
</svg>
