<svg width="20" height="20" viewBox="0 0 20 20" fill="none" xmlns="http://www.w3.org/2000/svg">
<g clip-path="url(#clip0_311_3372)">
<path d="M10.0007 1.66699C11.1057 1.66699 12.1655 2.10598 12.9469 2.88738C13.7283 3.66878 14.1673 4.72859 14.1673 5.83366V8.33366C14.8304 8.33366 15.4662 8.59705 15.9351 9.06589C16.4039 9.53473 16.6673 10.1706 16.6673 10.8337V15.8337C16.6673 16.4967 16.4039 17.1326 15.9351 17.6014C15.4662 18.0703 14.8304 18.3337 14.1673 18.3337H5.83398C5.17094 18.3337 4.53506 18.0703 4.06622 17.6014C3.59738 17.1326 3.33398 16.4967 3.33398 15.8337V10.8337C3.33398 10.1706 3.59738 9.53473 4.06622 9.06589C4.53506 8.59705 5.17094 8.33366 5.83398 8.33366V5.83366C5.83398 4.72859 6.27297 3.66878 7.05437 2.88738C7.83577 2.10598 8.89558 1.66699 10.0007 1.66699ZM10.0007 11.667C9.58017 11.6669 9.17518 11.8257 8.86686 12.1116C8.55854 12.3975 8.36969 12.7894 8.33815 13.2087L8.33398 13.3337C8.33398 13.6633 8.43173 13.9855 8.61487 14.2596C8.798 14.5337 9.0583 14.7473 9.36285 14.8735C9.66739 14.9996 10.0025 15.0326 10.3258 14.9683C10.6491 14.904 10.9461 14.7453 11.1792 14.5122C11.4122 14.2791 11.571 13.9821 11.6353 13.6588C11.6996 13.3355 11.6666 13.0004 11.5405 12.6959C11.4143 12.3913 11.2007 12.131 10.9266 11.9479C10.6525 11.7647 10.3303 11.667 10.0007 11.667ZM10.0007 3.33366C9.33761 3.33366 8.70172 3.59705 8.23288 4.06589C7.76404 4.53473 7.50065 5.17062 7.50065 5.83366V8.33366H12.5007V5.83366C12.5007 5.17062 12.2373 4.53473 11.7684 4.06589C11.2996 3.59705 10.6637 3.33366 10.0007 3.33366Z" fill="#589C68"/>
</g>
<defs>
<clipPath id="clip0_311_3372">
<rect width="20" height="20" fill="white"/>
</clipPath>
</defs>
</svg>
