<svg width="88" height="88" viewBox="0 0 88 88" fill="none" xmlns="http://www.w3.org/2000/svg">
<path d="M52.639 21.609C55.5795 22.7434 58.2677 24.4459 60.5502 26.6193C62.8327 28.7927 64.6648 31.3943 65.9419 34.2757C67.2189 37.1571 67.9159 40.2619 67.9931 43.4126C68.0703 46.5634 67.5261 49.6985 66.3916 52.639C65.2572 55.5795 63.5547 58.2677 61.3813 60.5502C59.2079 62.8327 56.6063 64.6648 53.7249 65.9419C50.8435 67.2189 47.7387 67.9159 44.5879 67.9931C41.4372 68.0703 38.302 67.5261 35.3616 66.3916C32.4211 65.2572 29.7329 63.5547 27.4503 61.3813C25.1678 59.2079 23.3358 56.6063 22.0587 53.7249C20.7817 50.8435 20.0847 47.7387 20.0075 44.588C19.9303 41.4372 20.4745 38.3021 21.6089 35.3616C22.7434 32.4211 24.4459 29.7329 26.6193 27.4504C28.7926 25.1679 31.3943 23.3358 34.2757 22.0587C37.1571 20.7817 40.2618 20.0847 43.4126 20.0075C46.5634 19.9303 49.6985 20.4745 52.639 21.609L52.639 21.609Z" stroke="#D9D9D9" stroke-width="8"/>
<path d="M52.639 21.609C55.5795 22.7434 58.2677 24.4459 60.5502 26.6193C62.8327 28.7927 64.6648 31.3943 65.9419 34.2757C67.2189 37.1571 67.9159 40.2619 67.9931 43.4126C68.0703 46.5634 67.5261 49.6985 66.3916 52.639C65.2572 55.5795 63.5547 58.2677 61.3813 60.5502C59.2079 62.8327 56.6063 64.6648 53.7249 65.9419C50.8435 67.2189 47.7387 67.9159 44.5879 67.9931C41.4372 68.0703 38.302 67.5261 35.3616 66.3916" stroke="#589C68" stroke-width="8"/>
</svg>
