<svg width="16" height="16" viewBox="0 0 16 16" fill="none" xmlns="http://www.w3.org/2000/svg">
<path d="M12.9801 7.36L11.1568 7.81508C11.1181 7.82501 11.0773 7.82347 11.0393 7.81064C11.0014 7.79781 10.9681 7.77425 10.9433 7.74281L8.94461 5.24414C8.82752 5.10839 8.68253 4.99948 8.51954 4.92482C8.35655 4.85017 8.17939 4.81152 8.00011 4.81152C7.82084 4.81152 7.64367 4.85017 7.48068 4.92482C7.3177 4.99948 7.17271 5.10839 7.05562 5.24414L5.05628 7.74347C5.0308 7.77418 4.99724 7.79716 4.9594 7.80981C4.92155 7.82247 4.88092 7.8243 4.84209 7.81509L3.02012 7.36C2.87698 7.32421 2.72702 7.32608 2.58482 7.36544C2.44262 7.40479 2.31302 7.48028 2.20865 7.58456C2.10427 7.68884 2.02866 7.81837 1.98918 7.96053C1.9497 8.1027 1.94769 8.25266 1.98334 8.39583L3.12461 12.9596C3.18949 13.2216 3.34032 13.4543 3.55299 13.6204C3.76566 13.7866 4.0279 13.8767 4.29779 13.8763H11.7021C11.972 13.8767 12.2342 13.7866 12.4469 13.6204C12.6596 13.4543 12.8104 13.2216 12.8753 12.9596L14.0165 8.39583C14.0522 8.25269 14.0502 8.10275 14.0107 7.96061C13.9713 7.81847 13.8957 7.68896 13.7914 7.58468C13.687 7.48041 13.5575 7.40491 13.4153 7.36553C13.2731 7.32616 13.1232 7.32425 12.9801 7.36Z" fill="#1E1F24"/>
<path d="M1.8335 6.83301C2.38578 6.83301 2.8335 6.38529 2.8335 5.83301C2.8335 5.28072 2.38578 4.83301 1.8335 4.83301C1.28121 4.83301 0.833496 5.28072 0.833496 5.83301C0.833496 6.38529 1.28121 6.83301 1.8335 6.83301Z" fill="#1E1F24"/>
<path d="M14.167 6.83301C14.7193 6.83301 15.167 6.38529 15.167 5.83301C15.167 5.28072 14.7193 4.83301 14.167 4.83301C13.6147 4.83301 13.167 5.28072 13.167 5.83301C13.167 6.38529 13.6147 6.83301 14.167 6.83301Z" fill="#1E1F24"/>
<path d="M8 4C8.55228 4 9 3.55228 9 3C9 2.44772 8.55228 2 8 2C7.44772 2 7 2.44772 7 3C7 3.55228 7.44772 4 8 4Z" fill="#1E1F24"/>
</svg>
