<svg width="20" height="20" viewBox="0 0 20 20" fill="none" xmlns="http://www.w3.org/2000/svg">
<g clip-path="url(#clip0_311_3350)">
<path d="M14.2566 18.4038C13.2016 18.3472 11.8199 17.688 10.0308 16.4413L9.99743 16.4188L9.96659 16.4413C8.17743 17.6888 6.7966 18.348 5.73993 18.4047L5.59159 18.4088C3.30243 18.4088 3.01076 16.2088 4.15993 12.3722L4.20493 12.2238L4.12159 12.1613C-0.925072 8.29634 -0.0834054 5.62134 6.24993 5.43967L6.41826 5.43551L6.51409 5.16384C7.50076 2.38884 8.53576 0.926341 9.86993 0.837174L9.99993 0.833008C11.3949 0.833008 12.4641 2.29967 13.4849 5.16384L13.5799 5.43551L13.7499 5.43967C20.0833 5.62134 20.9249 8.29634 15.8774 12.1605L15.7924 12.223L15.8383 12.3713C16.9633 16.1313 16.7049 18.3188 14.5416 18.4047L14.4058 18.4072L14.2566 18.4038Z" fill="#589C68"/>
</g>
<defs>
<clipPath id="clip0_311_3350">
<rect width="20" height="20" fill="white"/>
</clipPath>
</defs>
</svg>
