<svg width="156" height="74" viewBox="0 0 156 74" fill="none" xmlns="http://www.w3.org/2000/svg">
<rect x="16.9" y="15.9" width="122.2" height="42.2" rx="21.1" fill="#589C68"/>
<rect x="16.9" y="15.9" width="122.2" height="42.2" rx="21.1" stroke="#589C68" stroke-width="1.8"/>
<path d="M58 34.8571V44.8571C58 45.4255 57.7742 45.9705 57.3724 46.3724C56.9705 46.7742 56.4255 47 55.8571 47H40.1429C39.5745 47 39.0295 46.7742 38.6276 46.3724C38.2258 45.9705 38 45.4255 38 44.8571V34.8571C38 34.2888 38.2258 33.7438 38.6276 33.3419C39.0295 32.9401 39.5745 32.7143 40.1429 32.7143H55.8571C56.4255 32.7143 56.9705 32.9401 57.3724 33.3419C57.7742 33.7438 58 34.2888 58 34.8571ZM40.1429 31.2857H55.8571C56.0466 31.2857 56.2283 31.2105 56.3622 31.0765C56.4962 30.9426 56.5714 30.7609 56.5714 30.5714C56.5714 30.382 56.4962 30.2003 56.3622 30.0664C56.2283 29.9324 56.0466 29.8571 55.8571 29.8571H40.1429C39.9534 29.8571 39.7717 29.9324 39.6378 30.0664C39.5038 30.2003 39.4286 30.382 39.4286 30.5714C39.4286 30.7609 39.5038 30.9426 39.6378 31.0765C39.7717 31.2105 39.9534 31.2857 40.1429 31.2857ZM42.2857 28.4286H53.7143C53.9037 28.4286 54.0854 28.3533 54.2194 28.2194C54.3533 28.0854 54.4286 27.9037 54.4286 27.7143C54.4286 27.5248 54.3533 27.3432 54.2194 27.2092C54.0854 27.0753 53.9037 27 53.7143 27H42.2857C42.0963 27 41.9146 27.0753 41.7806 27.2092C41.6467 27.3432 41.5714 27.5248 41.5714 27.7143C41.5714 27.9037 41.6467 28.0854 41.7806 28.2194C41.9146 28.3533 42.0963 28.4286 42.2857 28.4286Z" fill="white"/>
<path d="M67.2798 42V32.2H70.5978C71.3725 32.2 72.0071 32.3307 72.5018 32.592C72.9965 32.8533 73.3605 33.2033 73.5938 33.642C73.8365 34.0713 73.9578 34.5613 73.9578 35.112C73.9578 35.6347 73.8365 36.12 73.5938 36.568C73.3605 37.0067 72.9918 37.3613 72.4878 37.632C71.9838 37.8933 71.3398 38.024 70.5558 38.024H68.6798V42H67.2798ZM72.4318 42L70.3178 37.646H71.8578L74.0558 42H72.4318ZM68.6798 36.96H70.4998C71.1905 36.96 71.6991 36.792 72.0258 36.456C72.3525 36.1107 72.5158 35.672 72.5158 35.14C72.5158 34.5987 72.3571 34.1693 72.0398 33.852C71.7225 33.5347 71.2091 33.376 70.4998 33.376H68.6798V36.96ZM78.4682 42.168C77.7962 42.168 77.1989 42.014 76.6762 41.706C76.1536 41.398 75.7429 40.9687 75.4442 40.418C75.1549 39.8673 75.0102 39.228 75.0102 38.5C75.0102 37.7533 75.1549 37.1047 75.4442 36.554C75.7429 35.994 76.1536 35.56 76.6762 35.252C77.1989 34.9347 77.8056 34.776 78.4962 34.776C79.1869 34.776 79.7796 34.93 80.2742 35.238C80.7689 35.546 81.1516 35.9567 81.4222 36.47C81.6929 36.974 81.8282 37.534 81.8282 38.15C81.8282 38.2433 81.8236 38.346 81.8142 38.458C81.8142 38.5607 81.8096 38.6773 81.8002 38.808H76.0322V37.814H80.4282C80.4002 37.226 80.2042 36.7687 79.8402 36.442C79.4762 36.106 79.0236 35.938 78.4822 35.938C78.0996 35.938 77.7496 36.0267 77.4322 36.204C77.1149 36.372 76.8582 36.624 76.6622 36.96C76.4756 37.2867 76.3822 37.702 76.3822 38.206V38.598C76.3822 39.1207 76.4756 39.564 76.6622 39.928C76.8582 40.2827 77.1149 40.5533 77.4322 40.74C77.7496 40.9173 78.0949 41.006 78.4682 41.006C78.9162 41.006 79.2849 40.908 79.5742 40.712C79.8636 40.516 80.0782 40.25 80.2182 39.914H81.6182C81.4969 40.3433 81.2916 40.7307 81.0022 41.076C80.7129 41.412 80.3536 41.678 79.9242 41.874C79.5042 42.07 79.0189 42.168 78.4682 42.168ZM86.6456 42.168C85.9643 42.168 85.3576 42.014 84.8256 41.706C84.2936 41.3887 83.8736 40.9547 83.5656 40.404C83.267 39.8533 83.1176 39.214 83.1176 38.486C83.1176 37.7487 83.267 37.1047 83.5656 36.554C83.8736 35.994 84.2936 35.56 84.8256 35.252C85.3576 34.9347 85.9643 34.776 86.6456 34.776C87.5043 34.776 88.223 35 88.8016 35.448C89.3803 35.896 89.749 36.5027 89.9076 37.268H88.4516C88.3583 36.8573 88.1436 36.54 87.8076 36.316C87.481 36.092 87.089 35.98 86.6316 35.98C86.2583 35.98 85.913 36.078 85.5956 36.274C85.2783 36.4607 85.0216 36.7407 84.8256 37.114C84.639 37.478 84.5456 37.9307 84.5456 38.472C84.5456 38.8733 84.6016 39.2327 84.7136 39.55C84.8256 39.858 84.975 40.1193 85.1616 40.334C85.3576 40.5487 85.5816 40.712 85.8336 40.824C86.0856 40.9267 86.3516 40.978 86.6316 40.978C86.9396 40.978 87.215 40.9313 87.4576 40.838C87.7096 40.7353 87.9196 40.586 88.0876 40.39C88.265 40.194 88.3863 39.9607 88.4516 39.69H89.9076C89.749 40.4367 89.3803 41.0387 88.8016 41.496C88.223 41.944 87.5043 42.168 86.6456 42.168ZM94.7378 42.168C94.0658 42.168 93.4684 42.014 92.9458 41.706C92.4231 41.398 92.0124 40.9687 91.7138 40.418C91.4244 39.8673 91.2798 39.228 91.2798 38.5C91.2798 37.7533 91.4244 37.1047 91.7138 36.554C92.0124 35.994 92.4231 35.56 92.9458 35.252C93.4684 34.9347 94.0751 34.776 94.7658 34.776C95.4564 34.776 96.0491 34.93 96.5438 35.238C97.0384 35.546 97.4211 35.9567 97.6918 36.47C97.9624 36.974 98.0978 37.534 98.0978 38.15C98.0978 38.2433 98.0931 38.346 98.0838 38.458C98.0838 38.5607 98.0791 38.6773 98.0698 38.808H92.3018V37.814H96.6978C96.6698 37.226 96.4738 36.7687 96.1098 36.442C95.7458 36.106 95.2931 35.938 94.7518 35.938C94.3691 35.938 94.0191 36.0267 93.7018 36.204C93.3844 36.372 93.1278 36.624 92.9318 36.96C92.7451 37.2867 92.6517 37.702 92.6517 38.206V38.598C92.6517 39.1207 92.7451 39.564 92.9318 39.928C93.1278 40.2827 93.3844 40.5533 93.7018 40.74C94.0191 40.9173 94.3644 41.006 94.7378 41.006C95.1858 41.006 95.5544 40.908 95.8438 40.712C96.1331 40.516 96.3478 40.25 96.4878 39.914H97.8878C97.7664 40.3433 97.5611 40.7307 97.2718 41.076C96.9824 41.412 96.6231 41.678 96.1938 41.874C95.7738 42.07 95.2884 42.168 94.7378 42.168ZM99.6532 42V34.944H100.913L100.997 36.148C101.221 35.728 101.539 35.3967 101.949 35.154C102.36 34.902 102.831 34.776 103.363 34.776C103.923 34.776 104.404 34.888 104.805 35.112C105.207 35.336 105.519 35.6767 105.743 36.134C105.967 36.582 106.079 37.1467 106.079 37.828V42H104.679V37.968C104.679 37.3147 104.535 36.82 104.245 36.484C103.956 36.148 103.536 35.98 102.985 35.98C102.621 35.98 102.295 36.0687 102.005 36.246C101.716 36.414 101.483 36.666 101.305 37.002C101.137 37.338 101.053 37.7487 101.053 38.234V42H99.6532ZM110.782 42C110.334 42 109.947 41.93 109.62 41.79C109.293 41.65 109.041 41.4167 108.864 41.09C108.687 40.7633 108.598 40.32 108.598 39.76V36.134H107.38V34.944H108.598L108.766 33.18H109.998V34.944H112V36.134H109.998V39.774C109.998 40.1753 110.082 40.4507 110.25 40.6C110.418 40.74 110.707 40.81 111.118 40.81H111.93V42H110.782ZM116.274 42.168C115.676 42.168 115.154 42.07 114.706 41.874C114.258 41.678 113.903 41.4027 113.642 41.048C113.38 40.6933 113.222 40.278 113.166 39.802H114.594C114.64 40.026 114.729 40.2313 114.86 40.418C115 40.6047 115.186 40.754 115.42 40.866C115.662 40.978 115.947 41.034 116.274 41.034C116.582 41.034 116.834 40.992 117.03 40.908C117.235 40.8147 117.384 40.6933 117.478 40.544C117.571 40.3853 117.618 40.2173 117.618 40.04C117.618 39.7787 117.552 39.5827 117.422 39.452C117.3 39.312 117.114 39.2047 116.862 39.13C116.619 39.046 116.325 38.9713 115.98 38.906C115.653 38.85 115.336 38.7753 115.028 38.682C114.729 38.5793 114.458 38.4533 114.216 38.304C113.982 38.1547 113.796 37.968 113.656 37.744C113.516 37.5107 113.446 37.226 113.446 36.89C113.446 36.4887 113.553 36.1293 113.768 35.812C113.982 35.4853 114.286 35.2333 114.678 35.056C115.079 34.8693 115.55 34.776 116.092 34.776C116.876 34.776 117.506 34.9627 117.982 35.336C118.458 35.7093 118.738 36.2367 118.822 36.918H117.464C117.426 36.6007 117.286 36.358 117.044 36.19C116.801 36.0127 116.479 35.924 116.078 35.924C115.676 35.924 115.368 36.0033 115.154 36.162C114.939 36.3207 114.832 36.5307 114.832 36.792C114.832 36.96 114.892 37.1093 115.014 37.24C115.135 37.3707 115.312 37.4827 115.546 37.576C115.788 37.66 116.082 37.7393 116.428 37.814C116.922 37.9073 117.366 38.024 117.758 38.164C118.15 38.304 118.462 38.5093 118.696 38.78C118.929 39.0507 119.046 39.438 119.046 39.942C119.055 40.3807 118.943 40.768 118.71 41.104C118.486 41.44 118.164 41.7013 117.744 41.888C117.333 42.0747 116.843 42.168 116.274 42.168Z" fill="white"/>
</svg>
