<svg width="24" height="24" viewBox="0 0 24 24" fill="none" xmlns="http://www.w3.org/2000/svg">
<path d="M22 9.85714V19.8571C22 20.4255 21.7742 20.9705 21.3724 21.3724C20.9705 21.7742 20.4255 22 19.8571 22H4.14286C3.57454 22 3.02949 21.7742 2.62763 21.3724C2.22576 20.9705 2 20.4255 2 19.8571V9.85714C2 9.28882 2.22576 8.74378 2.62763 8.34191C3.02949 7.94005 3.57454 7.71429 4.14286 7.71429H19.8571C20.4255 7.71429 20.9705 7.94005 21.3724 8.34191C21.7742 8.74378 22 9.28882 22 9.85714ZM4.14286 6.28571H19.8571C20.0466 6.28571 20.2283 6.21046 20.3622 6.0765C20.4962 5.94255 20.5714 5.76087 20.5714 5.57143C20.5714 5.38199 20.4962 5.20031 20.3622 5.06635C20.2283 4.9324 20.0466 4.85714 19.8571 4.85714H4.14286C3.95342 4.85714 3.77174 4.9324 3.63778 5.06635C3.50383 5.20031 3.42857 5.38199 3.42857 5.57143C3.42857 5.76087 3.50383 5.94255 3.63778 6.0765C3.77174 6.21046 3.95342 6.28571 4.14286 6.28571ZM6.28571 3.42857H17.7143C17.9037 3.42857 18.0854 3.35332 18.2194 3.21936C18.3533 3.08541 18.4286 2.90373 18.4286 2.71429C18.4286 2.52485 18.3533 2.34316 18.2194 2.20921C18.0854 2.07525 17.9037 2 17.7143 2H6.28571C6.09627 2 5.91459 2.07525 5.78064 2.20921C5.64668 2.34316 5.57143 2.52485 5.57143 2.71429C5.57143 2.90373 5.64668 3.08541 5.78064 3.21936C5.91459 3.35332 6.09627 3.42857 6.28571 3.42857Z" fill="#80828D"/>
</svg>
