<svg width="24" height="24" viewBox="0 0 24 24" fill="none" xmlns="http://www.w3.org/2000/svg">
<path d="M12.0008 15.5C11.0726 15.5 10.1823 15.1313 9.52594 14.4749C8.86957 13.8185 8.50082 12.9283 8.50082 12C8.50082 11.0717 8.86957 10.1815 9.52594 9.52513C10.1823 8.86875 11.0726 8.5 12.0008 8.5C12.9291 8.5 13.8193 8.86875 14.4757 9.52513C15.1321 10.1815 15.5008 11.0717 15.5008 12C15.5008 12.9283 15.1321 13.8185 14.4757 14.4749C13.8193 15.1313 12.9291 15.5 12.0008 15.5ZM19.4308 12.97C19.4708 12.65 19.5008 12.33 19.5008 12C19.5008 11.67 19.4708 11.34 19.4308 11L21.5408 9.37C21.7308 9.22 21.7808 8.95 21.6608 8.73L19.6608 5.27C19.5408 5.05 19.2708 4.96 19.0508 5.05L16.5608 6.05C16.0408 5.66 15.5008 5.32 14.8708 5.07L14.5008 2.42C14.4608 2.18 14.2508 2 14.0008 2H10.0008C9.75082 2 9.54082 2.18 9.50082 2.42L9.13082 5.07C8.50082 5.32 7.96082 5.66 7.44082 6.05L4.95082 5.05C4.73082 4.96 4.46082 5.05 4.34082 5.27L2.34082 8.73C2.21082 8.95 2.27082 9.22 2.46082 9.37L4.57082 11C4.53082 11.34 4.50082 11.67 4.50082 12C4.50082 12.33 4.53082 12.65 4.57082 12.97L2.46082 14.63C2.27082 14.78 2.21082 15.05 2.34082 15.27L4.34082 18.73C4.46082 18.95 4.73082 19.03 4.95082 18.95L7.44082 17.94C7.96082 18.34 8.50082 18.68 9.13082 18.93L9.50082 21.58C9.54082 21.82 9.75082 22 10.0008 22H14.0008C14.2508 22 14.4608 21.82 14.5008 21.58L14.8708 18.93C15.5008 18.67 16.0408 18.34 16.5608 17.94L19.0508 18.95C19.2708 19.03 19.5408 18.95 19.6608 18.73L21.6608 15.27C21.7808 15.05 21.7308 14.78 21.5408 14.63L19.4308 12.97Z" fill="white"/>
</svg>
