<svg width="157" height="74" viewBox="0 0 157 74" fill="none" xmlns="http://www.w3.org/2000/svg">
<rect x="16.9" y="15.9" width="123.2" height="42.2" rx="21.1" fill="#589C68"/>
<rect x="16.9" y="15.9" width="123.2" height="42.2" rx="21.1" stroke="#589C68" stroke-width="1.8"/>
<path d="M48.0008 40.5C47.0726 40.5 46.1823 40.1313 45.5259 39.4749C44.8696 38.8185 44.5008 37.9283 44.5008 37C44.5008 36.0717 44.8696 35.1815 45.5259 34.5251C46.1823 33.8687 47.0726 33.5 48.0008 33.5C48.9291 33.5 49.8193 33.8687 50.4757 34.5251C51.1321 35.1815 51.5008 36.0717 51.5008 37C51.5008 37.9283 51.1321 38.8185 50.4757 39.4749C49.8193 40.1313 48.9291 40.5 48.0008 40.5ZM55.4308 37.97C55.4708 37.65 55.5008 37.33 55.5008 37C55.5008 36.67 55.4708 36.34 55.4308 36L57.5408 34.37C57.7308 34.22 57.7808 33.95 57.6608 33.73L55.6608 30.27C55.5408 30.05 55.2708 29.96 55.0508 30.05L52.5608 31.05C52.0408 30.66 51.5008 30.32 50.8708 30.07L50.5008 27.42C50.4608 27.18 50.2508 27 50.0008 27H46.0008C45.7508 27 45.5408 27.18 45.5008 27.42L45.1308 30.07C44.5008 30.32 43.9608 30.66 43.4408 31.05L40.9508 30.05C40.7308 29.96 40.4608 30.05 40.3408 30.27L38.3408 33.73C38.2108 33.95 38.2708 34.22 38.4608 34.37L40.5708 36C40.5308 36.34 40.5008 36.67 40.5008 37C40.5008 37.33 40.5308 37.65 40.5708 37.97L38.4608 39.63C38.2708 39.78 38.2108 40.05 38.3408 40.27L40.3408 43.73C40.4608 43.95 40.7308 44.03 40.9508 43.95L43.4408 42.94C43.9608 43.34 44.5008 43.68 45.1308 43.93L45.5008 46.58C45.5408 46.82 45.7508 47 46.0008 47H50.0008C50.2508 47 50.4608 46.82 50.5008 46.58L50.8708 43.93C51.5008 43.67 52.0408 43.34 52.5608 42.94L55.0508 43.95C55.2708 44.03 55.5408 43.95 55.6608 43.73L57.6608 40.27C57.7808 40.05 57.7308 39.78 57.5408 39.63L55.4308 37.97Z" fill="white"/>
<path d="M70.562 42.168C69.8433 42.168 69.2133 42.042 68.672 41.79C68.1307 41.5287 67.7107 41.1647 67.412 40.698C67.1133 40.2313 66.964 39.6853 66.964 39.06H68.434C68.4433 39.4147 68.5273 39.7413 68.686 40.04C68.854 40.3293 69.092 40.5627 69.4 40.74C69.7173 40.908 70.1047 40.992 70.562 40.992C70.954 40.992 71.29 40.9267 71.57 40.796C71.8593 40.6653 72.0787 40.488 72.228 40.264C72.3773 40.0307 72.452 39.7647 72.452 39.466C72.452 39.1207 72.3727 38.836 72.214 38.612C72.0553 38.388 71.8407 38.206 71.57 38.066C71.3087 37.9167 71.0007 37.786 70.646 37.674C70.3007 37.562 69.9367 37.4407 69.554 37.31C68.7793 37.058 68.2007 36.7313 67.818 36.33C67.4447 35.9287 67.258 35.406 67.258 34.762C67.258 34.2113 67.3887 33.7353 67.65 33.334C67.9113 32.9233 68.2753 32.606 68.742 32.382C69.218 32.1487 69.778 32.032 70.422 32.032C71.0567 32.032 71.612 32.1487 72.088 32.382C72.564 32.6153 72.9373 32.9373 73.208 33.348C73.4787 33.7587 73.614 34.2393 73.614 34.79H72.13C72.13 34.538 72.0647 34.2907 71.934 34.048C71.8033 33.8053 71.6073 33.6093 71.346 33.46C71.0847 33.3013 70.7627 33.222 70.38 33.222C70.0627 33.2127 69.778 33.264 69.526 33.376C69.274 33.488 69.078 33.6513 68.938 33.866C68.798 34.0807 68.728 34.3373 68.728 34.636C68.728 34.9347 68.7887 35.1773 68.91 35.364C69.0407 35.5413 69.2273 35.6953 69.47 35.826C69.7127 35.9567 69.9927 36.078 70.31 36.19C70.6367 36.2927 70.996 36.4093 71.388 36.54C71.8733 36.6987 72.3027 36.8947 72.676 37.128C73.0587 37.352 73.3573 37.646 73.572 38.01C73.796 38.3647 73.908 38.822 73.908 39.382C73.908 39.8673 73.782 40.32 73.53 40.74C73.278 41.16 72.9047 41.5053 72.41 41.776C71.9153 42.0373 71.2993 42.168 70.562 42.168ZM78.6948 42.168C78.0228 42.168 77.4254 42.014 76.9028 41.706C76.3801 41.398 75.9694 40.9687 75.6708 40.418C75.3814 39.8673 75.2368 39.228 75.2368 38.5C75.2368 37.7533 75.3814 37.1047 75.6708 36.554C75.9694 35.994 76.3801 35.56 76.9028 35.252C77.4254 34.9347 78.0321 34.776 78.7228 34.776C79.4134 34.776 80.0061 34.93 80.5008 35.238C80.9954 35.546 81.3781 35.9567 81.6488 36.47C81.9194 36.974 82.0548 37.534 82.0548 38.15C82.0548 38.2433 82.0501 38.346 82.0408 38.458C82.0408 38.5607 82.0361 38.6773 82.0268 38.808H76.2588V37.814H80.6548C80.6268 37.226 80.4308 36.7687 80.0668 36.442C79.7028 36.106 79.2501 35.938 78.7088 35.938C78.3261 35.938 77.9761 36.0267 77.6588 36.204C77.3414 36.372 77.0848 36.624 76.8888 36.96C76.7021 37.2867 76.6088 37.702 76.6088 38.206V38.598C76.6088 39.1207 76.7021 39.564 76.8888 39.928C77.0848 40.2827 77.3414 40.5533 77.6588 40.74C77.9761 40.9173 78.3214 41.006 78.6948 41.006C79.1428 41.006 79.5114 40.908 79.8008 40.712C80.0901 40.516 80.3048 40.25 80.4448 39.914H81.8448C81.7234 40.3433 81.5181 40.7307 81.2288 41.076C80.9394 41.412 80.5801 41.678 80.1508 41.874C79.7308 42.07 79.2454 42.168 78.6948 42.168ZM86.3308 42C85.8828 42 85.4955 41.93 85.1688 41.79C84.8421 41.65 84.5901 41.4167 84.4128 41.09C84.2355 40.7633 84.1468 40.32 84.1468 39.76V36.134H82.9288V34.944H84.1468L84.3148 33.18H85.5468V34.944H87.5488V36.134H85.5468V39.774C85.5468 40.1753 85.6308 40.4507 85.7988 40.6C85.9668 40.74 86.2561 40.81 86.6668 40.81H87.4788V42H86.3308ZM92.0046 42C91.5566 42 91.1693 41.93 90.8426 41.79C90.516 41.65 90.264 41.4167 90.0866 41.09C89.9093 40.7633 89.8206 40.32 89.8206 39.76V36.134H88.6026V34.944H89.8206L89.9886 33.18H91.2206V34.944H93.2226V36.134H91.2206V39.774C91.2206 40.1753 91.3046 40.4507 91.4726 40.6C91.6406 40.74 91.93 40.81 92.3406 40.81H93.1526V42H92.0046ZM94.8645 42V34.944H96.2645V42H94.8645ZM95.5785 33.614C95.3078 33.614 95.0838 33.53 94.9065 33.362C94.7385 33.194 94.6545 32.9793 94.6545 32.718C94.6545 32.466 94.7385 32.2607 94.9065 32.102C95.0838 31.934 95.3078 31.85 95.5785 31.85C95.8398 31.85 96.0591 31.934 96.2365 32.102C96.4138 32.2607 96.5025 32.466 96.5025 32.718C96.5025 32.9793 96.4138 33.194 96.2365 33.362C96.0591 33.53 95.8398 33.614 95.5785 33.614ZM98.2665 42V34.944H99.5265L99.6105 36.148C99.8345 35.728 100.152 35.3967 100.562 35.154C100.973 34.902 101.444 34.776 101.976 34.776C102.536 34.776 103.017 34.888 103.418 35.112C103.82 35.336 104.132 35.6767 104.356 36.134C104.58 36.582 104.692 37.1467 104.692 37.828V42H103.292V37.968C103.292 37.3147 103.148 36.82 102.858 36.484C102.569 36.148 102.149 35.98 101.598 35.98C101.234 35.98 100.908 36.0687 100.618 36.246C100.329 36.414 100.096 36.666 99.9185 37.002C99.7505 37.338 99.6665 37.7487 99.6665 38.234V42H98.2665ZM109.353 45.248C108.709 45.248 108.14 45.164 107.645 44.996C107.151 44.8373 106.768 44.59 106.497 44.254C106.227 43.918 106.091 43.5073 106.091 43.022C106.091 42.77 106.147 42.5133 106.259 42.252C106.371 42 106.553 41.7573 106.805 41.524C107.057 41.2907 107.398 41.0807 107.827 40.894L108.611 41.524C108.135 41.7013 107.813 41.9113 107.645 42.154C107.487 42.406 107.407 42.6487 107.407 42.882C107.407 43.162 107.491 43.3953 107.659 43.582C107.827 43.7687 108.056 43.9087 108.345 44.002C108.644 44.0953 108.98 44.142 109.353 44.142C109.717 44.142 110.035 44.0907 110.305 43.988C110.576 43.8853 110.786 43.7407 110.935 43.554C111.085 43.3673 111.159 43.148 111.159 42.896C111.159 42.5973 111.047 42.3453 110.823 42.14C110.599 41.944 110.17 41.8273 109.535 41.79C109.003 41.7527 108.551 41.7013 108.177 41.636C107.813 41.5707 107.501 41.4913 107.239 41.398C106.987 41.3047 106.773 41.202 106.595 41.09C106.427 40.978 106.283 40.8613 106.161 40.74V40.418L107.561 38.976L108.695 39.368L107.169 40.782L107.463 40.152C107.566 40.2173 107.664 40.2827 107.757 40.348C107.851 40.404 107.977 40.4553 108.135 40.502C108.294 40.5487 108.509 40.5907 108.779 40.628C109.05 40.6653 109.405 40.7027 109.843 40.74C110.478 40.7867 110.987 40.8987 111.369 41.076C111.761 41.2533 112.046 41.4913 112.223 41.79C112.401 42.0887 112.489 42.4433 112.489 42.854C112.489 43.2553 112.377 43.638 112.153 44.002C111.939 44.366 111.598 44.6647 111.131 44.898C110.674 45.1313 110.081 45.248 109.353 45.248ZM109.353 39.83C108.756 39.83 108.247 39.718 107.827 39.494C107.417 39.27 107.099 38.9667 106.875 38.584C106.661 38.2013 106.553 37.7767 106.553 37.31C106.553 36.834 106.661 36.4093 106.875 36.036C107.099 35.6533 107.421 35.35 107.841 35.126C108.261 34.8927 108.765 34.776 109.353 34.776C109.941 34.776 110.441 34.8927 110.851 35.126C111.271 35.35 111.589 35.6533 111.803 36.036C112.027 36.4093 112.139 36.834 112.139 37.31C112.139 37.7767 112.027 38.2013 111.803 38.584C111.589 38.9667 111.271 39.27 110.851 39.494C110.441 39.718 109.941 39.83 109.353 39.83ZM109.353 38.71C109.811 38.71 110.175 38.5933 110.445 38.36C110.716 38.1173 110.851 37.7673 110.851 37.31C110.851 36.8527 110.716 36.5073 110.445 36.274C110.175 36.0313 109.811 35.91 109.353 35.91C108.896 35.91 108.527 36.0313 108.247 36.274C107.967 36.5073 107.827 36.8527 107.827 37.31C107.827 37.7673 107.967 38.1173 108.247 38.36C108.527 38.5933 108.896 38.71 109.353 38.71ZM110.501 36.05L110.165 34.944H113.063V35.91L110.501 36.05ZM117.198 42.168C116.6 42.168 116.078 42.07 115.63 41.874C115.182 41.678 114.827 41.4027 114.566 41.048C114.304 40.6933 114.146 40.278 114.09 39.802H115.518C115.564 40.026 115.653 40.2313 115.784 40.418C115.924 40.6047 116.11 40.754 116.344 40.866C116.586 40.978 116.871 41.034 117.198 41.034C117.506 41.034 117.758 40.992 117.954 40.908C118.159 40.8147 118.308 40.6933 118.402 40.544C118.495 40.3853 118.542 40.2173 118.542 40.04C118.542 39.7787 118.476 39.5827 118.346 39.452C118.224 39.312 118.038 39.2047 117.786 39.13C117.543 39.046 117.249 38.9713 116.904 38.906C116.577 38.85 116.26 38.7753 115.952 38.682C115.653 38.5793 115.382 38.4533 115.14 38.304C114.906 38.1547 114.72 37.968 114.58 37.744C114.44 37.5107 114.37 37.226 114.37 36.89C114.37 36.4887 114.477 36.1293 114.692 35.812C114.906 35.4853 115.21 35.2333 115.602 35.056C116.003 34.8693 116.474 34.776 117.016 34.776C117.8 34.776 118.43 34.9627 118.906 35.336C119.382 35.7093 119.662 36.2367 119.746 36.918H118.388C118.35 36.6007 118.21 36.358 117.968 36.19C117.725 36.0127 117.403 35.924 117.002 35.924C116.6 35.924 116.292 36.0033 116.078 36.162C115.863 36.3207 115.756 36.5307 115.756 36.792C115.756 36.96 115.816 37.1093 115.938 37.24C116.059 37.3707 116.236 37.4827 116.47 37.576C116.712 37.66 117.006 37.7393 117.352 37.814C117.846 37.9073 118.29 38.024 118.682 38.164C119.074 38.304 119.386 38.5093 119.62 38.78C119.853 39.0507 119.97 39.438 119.97 39.942C119.979 40.3807 119.867 40.768 119.634 41.104C119.41 41.44 119.088 41.7013 118.668 41.888C118.257 42.0747 117.767 42.168 117.198 42.168Z" fill="white"/>
</svg>
