<svg width="24" height="24" viewBox="0 0 24 24" fill="none" xmlns="http://www.w3.org/2000/svg">
<g clip-path="url(#clip0_311_1852)">
<path d="M12 18.5C12.2449 18.5 12.4813 18.59 12.6644 18.7527C12.8474 18.9155 12.9643 19.1397 12.993 19.383L13 19.5V20.5C12.9997 20.7549 12.9021 21 12.7272 21.1854C12.5522 21.3707 12.313 21.4822 12.0586 21.4972C11.8042 21.5121 11.5536 21.4293 11.3582 21.2657C11.1627 21.1021 11.0371 20.8701 11.007 20.617L11 20.5V19.5C11 19.2348 11.1054 18.9804 11.2929 18.7929C11.4804 18.6054 11.7348 18.5 12 18.5Z" fill="#FFD23F"/>
<path d="M18.3127 16.4099L18.4067 16.4929L19.1067 17.1929C19.2861 17.3729 19.3902 17.6144 19.398 17.8683C19.4057 18.1223 19.3165 18.3697 19.1485 18.5602C18.9804 18.7508 18.7462 18.8702 18.4933 18.8943C18.2403 18.9184 17.9877 18.8454 17.7867 18.6899L17.6927 18.6069L16.9927 17.9069C16.8202 17.7347 16.7165 17.5053 16.7012 17.2619C16.6859 17.0186 16.76 16.778 16.9097 16.5855C17.0593 16.393 17.2741 16.2618 17.5137 16.2166C17.7533 16.1713 18.0012 16.2152 18.2107 16.3399L18.3127 16.4099Z" fill="#FFD23F"/>
<path d="M7.00747 16.493C7.17965 16.6652 7.28308 16.8943 7.29836 17.1373C7.31364 17.3803 7.23972 17.6206 7.09047 17.813L7.00747 17.907L6.30747 18.607C6.12751 18.7863 5.88604 18.8905 5.63209 18.8982C5.37814 18.906 5.13076 18.8168 4.94019 18.6487C4.74963 18.4807 4.63017 18.2464 4.60607 17.9935C4.58198 17.7406 4.65506 17.488 4.81047 17.287L4.89347 17.193L5.59347 16.493C5.781 16.3055 6.03531 16.2002 6.30047 16.2002C6.56563 16.2002 6.81994 16.3055 7.00747 16.493Z" fill="#FFD23F"/>
<path d="M3.99987 10.5C4.25475 10.5003 4.4999 10.5979 4.68524 10.7728C4.87057 10.9478 4.9821 11.187 4.99704 11.4414C5.01198 11.6958 4.92919 11.9464 4.7656 12.1418C4.60201 12.3373 4.36996 12.4629 4.11687 12.493L3.99987 12.5H2.99987C2.74499 12.4997 2.49984 12.4021 2.3145 12.2272C2.12916 12.0522 2.01763 11.813 2.0027 11.5586C1.98776 11.3042 2.07054 11.0536 2.23413 10.8582C2.39772 10.6627 2.62977 10.5371 2.88287 10.507L2.99987 10.5H3.99987Z" fill="#FFD23F"/>
<path d="M20.9999 10.5C21.2547 10.5003 21.4999 10.5979 21.6852 10.7728C21.8706 10.9478 21.9821 11.187 21.997 11.4414C22.012 11.6958 21.9292 11.9464 21.7656 12.1418C21.602 12.3373 21.37 12.4629 21.1169 12.493L20.9999 12.5H19.9999C19.745 12.4997 19.4998 12.4021 19.3145 12.2272C19.1292 12.0522 19.0176 11.813 19.0027 11.5586C18.9878 11.3042 19.0705 11.0536 19.2341 10.8582C19.3977 10.6627 19.6298 10.5371 19.8829 10.507L19.9999 10.5H20.9999Z" fill="#FFD23F"/>
<path d="M6.21264 4.30985L6.30664 4.39285L7.00664 5.09285C7.18599 5.27281 7.29011 5.51429 7.29787 5.76824C7.30562 6.02219 7.21642 6.26957 7.04839 6.46013C6.88036 6.6507 6.64609 6.77016 6.39316 6.79425C6.14024 6.81834 5.88763 6.74526 5.68664 6.58985L5.59264 6.50685L4.89264 5.80685C4.72073 5.63453 4.61757 5.40543 4.6025 5.16248C4.58744 4.91954 4.6615 4.67945 4.8108 4.48721C4.9601 4.29497 5.1744 4.16378 5.41351 4.11824C5.65262 4.07271 5.90013 4.11594 6.10964 4.23985L6.21264 4.30985Z" fill="#FFD23F"/>
<path d="M19.1071 4.39337C19.2793 4.56557 19.3827 4.79467 19.398 5.03769C19.4132 5.28072 19.3393 5.52097 19.1901 5.71337L19.1071 5.80737L18.4071 6.50737C18.2271 6.68672 17.9856 6.79085 17.7317 6.7986C17.4777 6.80636 17.2304 6.71716 17.0398 6.54912C16.8492 6.38109 16.7298 6.14682 16.7057 5.8939C16.6816 5.64098 16.7547 5.38836 16.9101 5.18737L16.9931 5.09337L17.6931 4.39337C17.8806 4.2059 18.1349 4.10059 18.4001 4.10059C18.6652 4.10059 18.9196 4.2059 19.1071 4.39337Z" fill="#FFD23F"/>
<path d="M12 1.5C12.2449 1.50003 12.4813 1.58996 12.6644 1.75272C12.8474 1.91547 12.9643 2.13975 12.993 2.383L13 2.5V3.5C12.9997 3.75488 12.9021 4.00003 12.7272 4.18537C12.5522 4.3707 12.313 4.48223 12.0586 4.49717C11.8042 4.51211 11.5536 4.42933 11.3582 4.26574C11.1627 4.10214 11.0371 3.8701 11.007 3.617L11 3.5V2.5C11 2.23478 11.1054 1.98043 11.2929 1.79289C11.4804 1.60536 11.7348 1.5 12 1.5Z" fill="#FFD23F"/>
<path d="M12 6.5C12.9797 6.49994 13.9378 6.78769 14.7553 7.3275C15.5729 7.86731 16.2138 8.6354 16.5986 9.53636C16.9833 10.4373 17.0949 11.4315 16.9195 12.3953C16.7441 13.3592 16.2893 14.2502 15.6118 14.9579C14.9343 15.6655 14.0638 16.1585 13.1085 16.3756C12.1532 16.5928 11.1552 16.5245 10.2383 16.1793C9.3215 15.834 8.52629 15.2271 7.95146 14.4338C7.37663 13.6405 7.04752 12.6958 7.005 11.717L7 11.5L7.005 11.283C7.06092 9.99575 7.61161 8.77978 8.54222 7.88866C9.47284 6.99754 10.7115 6.50007 12 6.5Z" fill="#FFD23F"/>
</g>
<defs>
<clipPath id="clip0_311_1852">
<rect width="24" height="24" fill="white" transform="translate(0 -0.5)"/>
</clipPath>
</defs>
</svg>
