<svg width="24" height="24" viewBox="0 0 24 24" fill="none" xmlns="http://www.w3.org/2000/svg">
<path d="M1.76704 11.0114L4.27129 8.74161L7.56459 7.98175C8.5924 7.7446 9.62965 8.33812 9.94598 9.34439C10.5495 11.2642 10.8262 13.2708 10.768 15.2825C10.7124 17.2084 10.5177 19.3008 9.94551 19.5998C9.37335 19.8988 7.54439 18.8639 5.93152 17.8099C4.24686 16.709 2.75749 15.3362 1.52597 13.7445C0.88049 12.9102 0.98549 11.7198 1.76704 11.0114Z" fill="#B1B1BC"/>
<path opacity="0.15" d="M10.7672 15.2334V15.2814C10.7124 17.2083 10.5203 19.2997 9.94436 19.6014C9.37521 19.8962 7.54437 18.8608 5.93291 17.8117C4.24608 16.7077 2.75805 15.3362 1.52377 13.7454C1.24265 13.3751 1.09863 12.9431 1.09863 12.5111C1.09863 11.9557 1.32493 11.4071 1.7638 11.0094L4.27349 8.73966L6.21408 8.28711C5.2952 9.06883 4.71236 10.2825 4.71236 11.6403C4.71236 13.9991 6.47465 15.9054 8.64835 15.9054C9.43008 15.9054 10.1569 15.6585 10.7672 15.2334Z" fill="black"/>
<path d="M2.49902 7.3326L4.12593 6.48242L6.50568 11.0363C6.74046 11.4856 6.56658 12.0401 6.11732 12.2749C5.66807 12.5096 5.11355 12.3358 4.87878 11.8865L2.49902 7.3326Z" fill="#DBDBE7"/>
<path d="M4.45734 7.42448L3.08349 8.14242C2.76117 8.31086 2.36333 8.18611 2.19489 7.86379L0.756091 5.1105C0.389401 4.4088 0.660976 3.5427 1.36268 3.17601C2.06437 2.80932 2.93048 3.0809 3.29717 3.7826L4.73597 6.53589C4.9044 6.85821 4.77965 7.25604 4.45734 7.42448Z" fill="#F7524B"/>
<path d="M0 20.9842H24C24 18.7505 22.4796 16.8756 20.4171 16.3253C19.4756 13.8878 17.1114 12.1514 14.3397 12.1514C12.3139 12.1514 10.5041 13.0766 9.30572 14.5277C8.87773 14.3973 8.42937 14.328 7.95653 14.328C6.07746 14.328 4.46333 15.4408 3.72555 17.0427C1.64676 17.1609 0 18.8769 0 20.9842Z" fill="#AD6340"/>
<path d="M10.2073 18.3286C10.0573 18.3286 9.91935 18.2295 9.87716 18.0775C9.72683 17.5357 9.22861 17.1574 8.66578 17.1574C8.10328 17.1574 7.60506 17.5357 7.45473 18.0775C7.40417 18.2603 7.216 18.3681 7.03252 18.3159C6.85004 18.2657 6.74324 18.0761 6.79379 17.894C7.02683 17.0563 7.79625 16.4717 8.66578 16.4717C9.53531 16.4717 10.3051 17.0563 10.5381 17.894C10.5887 18.0761 10.4819 18.2657 10.2994 18.3159C10.2686 18.3246 10.2378 18.3286 10.2073 18.3286ZM14.6979 19.6639C14.6678 19.6639 14.637 19.6598 14.6062 19.6511C14.4234 19.6009 14.3169 19.4114 14.3678 19.2293C14.6002 18.3915 15.3702 17.8069 16.2394 17.8069C17.1093 17.8069 17.8794 18.3922 18.1111 19.2293C18.162 19.4121 18.0548 19.6009 17.8727 19.6511C17.6892 19.7047 17.5004 19.5942 17.4508 19.4127C17.3008 18.871 16.8026 18.4927 16.2394 18.4927C15.6769 18.4927 15.1787 18.871 15.0281 19.4127C14.9859 19.5648 14.8479 19.6639 14.6979 19.6639Z" fill="#883F2B"/>
<path opacity="0.15" d="M9.67051 20.9864H0.00195312C0.00195312 18.8744 1.64764 17.1601 3.72538 17.0436C4.46592 15.439 6.07737 14.3281 7.95622 14.3281C8.30594 14.3281 8.6488 14.3693 8.97106 14.4378C8.45678 15.2607 8.16193 16.2276 8.16193 17.263C8.16193 18.7098 8.73795 20.0264 9.67051 20.9864Z" fill="black"/>
</svg>
