<svg width="24" height="24" viewBox="0 0 24 24" fill="none" xmlns="http://www.w3.org/2000/svg">
<path d="M11.492 5.81555L10.6558 3.92097C10.6264 3.85443 10.5784 3.79785 10.5175 3.75813C10.4565 3.71841 10.3854 3.69727 10.3127 3.69727C10.2399 3.69727 10.1688 3.71841 10.1078 3.75813C10.0469 3.79785 9.99887 3.85443 9.96953 3.92097L9.23997 5.57292L7.80259 4.47556C7.74479 4.43148 7.67542 4.40516 7.60292 4.39978C7.53043 4.39441 7.45794 4.41023 7.39427 4.4453C7.3306 4.48038 7.2785 4.5332 7.2443 4.59735C7.2101 4.66149 7.19529 4.73419 7.20165 4.80661L7.37325 6.74993L5.43672 6.53843C5.36441 6.53051 5.29135 6.54379 5.22646 6.57665C5.16156 6.60951 5.10762 6.66054 5.07121 6.72352C5.03481 6.7865 5.0175 6.8587 5.02141 6.93134C5.02532 7.00398 5.05026 7.07391 5.09322 7.13262L6.16035 8.59197L4.49082 9.28741C4.42363 9.31534 4.36603 9.36221 4.32501 9.4223C4.284 9.4824 4.26136 9.55313 4.25985 9.62587C4.25833 9.69861 4.27801 9.77023 4.31649 9.83198C4.35496 9.89373 4.41057 9.94296 4.47653 9.97366L6.24349 10.7976L5.09359 12.3671C5.05061 12.4257 5.02563 12.4957 5.02168 12.5683C5.01773 12.6409 5.03499 12.7131 5.07136 12.7761C5.10772 12.8391 5.16163 12.8902 5.2265 12.9231C5.29137 12.956 5.36441 12.9693 5.43672 12.9614L7.23447 12.7649L7.00084 14.5577C6.99146 14.6298 7.00323 14.7031 7.03473 14.7686C7.06624 14.8341 7.1161 14.8891 7.17826 14.9268C7.24043 14.9645 7.31221 14.9833 7.38487 14.9809C7.45753 14.9786 7.52794 14.9551 7.58753 14.9135L9.18274 13.7971L9.96938 15.5789C9.99872 15.6454 10.0468 15.702 10.1077 15.7417C10.1686 15.7815 10.2398 15.8026 10.3125 15.8026C10.3852 15.8026 10.4564 15.7815 10.5173 15.7417C10.5782 15.702 10.6263 15.6454 10.6556 15.5789L11.4942 13.6794C11.5353 13.6442 11.5683 13.6006 11.5908 13.5515C11.6134 13.5024 11.625 13.449 11.625 13.3949V6.10868C11.6264 6.05295 11.6152 5.99762 11.5921 5.94685C11.5691 5.89608 11.5349 5.85119 11.492 5.81555Z" fill="#F7941E"/>
<path d="M11.394 7.15374C10.9666 6.97571 10.5019 6.90594 10.041 6.95063C9.58019 6.99532 9.13752 7.15309 8.75229 7.40993C8.36707 7.66677 8.05122 8.01474 7.83276 8.42296C7.6143 8.83117 7.5 9.28701 7.5 9.75C7.5 10.213 7.6143 10.6688 7.83276 11.077C8.05122 11.4853 8.36707 11.8332 8.75229 12.0901C9.13752 12.3469 9.58019 12.5047 10.041 12.5494C10.5019 12.5941 10.9666 12.5243 11.394 12.3463C11.4624 12.3178 11.5209 12.2698 11.562 12.2081C11.6031 12.1465 11.6251 12.0741 11.6251 12V7.49998C11.6251 7.4259 11.6031 7.35348 11.562 7.29186C11.5209 7.23024 11.4624 7.18218 11.394 7.15374Z" fill="#F9D641"/>
<path d="M16.1247 15.9463V3.375C16.1238 2.67906 15.847 2.01185 15.3549 1.51974C14.8628 1.02764 14.1956 0.750814 13.4997 0.75C12.8499 0.750944 12.2235 0.992398 11.7413 1.42781C11.259 1.86323 10.955 2.46177 10.8879 3.10804C10.879 3.19675 10.8746 3.28585 10.8747 3.375V15.9465C10.3272 16.3931 9.90491 16.9741 9.64912 17.6327C9.39334 18.2914 9.31277 19.0051 9.41531 19.7041C9.56152 20.7379 10.0943 21.6777 10.9061 22.3341C11.718 22.9906 12.7485 23.3147 13.7899 23.2412C14.8314 23.1678 15.8062 22.7021 16.5179 21.9382C17.2295 21.1744 17.625 20.169 17.6247 19.125C17.6273 18.5169 17.4939 17.9158 17.2344 17.3659C16.9749 16.8159 16.5957 16.3309 16.1247 15.9463Z" fill="#00AEEF"/>
<path d="M19.5 16.125H17.25C17.1505 16.125 17.0552 16.0855 16.9848 16.0152C16.9145 15.9448 16.875 15.8495 16.875 15.75C16.875 15.6505 16.9145 15.5552 16.9848 15.4848C17.0552 15.4145 17.1505 15.375 17.25 15.375H19.5C19.5995 15.375 19.6948 15.4145 19.7652 15.4848C19.8355 15.5552 19.875 15.6505 19.875 15.75C19.875 15.8495 19.8355 15.9448 19.7652 16.0152C19.6948 16.0855 19.5995 16.125 19.5 16.125ZM18.75 14.625H17.25C17.1505 14.625 17.0552 14.5855 16.9848 14.5152C16.9145 14.4448 16.875 14.3495 16.875 14.25C16.875 14.1505 16.9145 14.0552 16.9848 13.9848C17.0552 13.9145 17.1505 13.875 17.25 13.875H18.75C18.8495 13.875 18.9448 13.9145 19.0152 13.9848C19.0855 14.0552 19.125 14.1505 19.125 14.25C19.125 14.3495 19.0855 14.4448 19.0152 14.5152C18.9448 14.5855 18.8495 14.625 18.75 14.625ZM19.5 13.125H17.25C17.1505 13.125 17.0552 13.0855 16.9848 13.0152C16.9145 12.9448 16.875 12.8495 16.875 12.75C16.875 12.6505 16.9145 12.5552 16.9848 12.4848C17.0552 12.4145 17.1505 12.375 17.25 12.375H19.5C19.5995 12.375 19.6948 12.4145 19.7652 12.4848C19.8355 12.5552 19.875 12.6505 19.875 12.75C19.875 12.8495 19.8355 12.9448 19.7652 13.0152C19.6948 13.0855 19.5995 13.125 19.5 13.125ZM18.75 11.625H17.25C17.1505 11.625 17.0552 11.5855 16.9848 11.5152C16.9145 11.4448 16.875 11.3495 16.875 11.25C16.875 11.1505 16.9145 11.0552 16.9848 10.9848C17.0552 10.9145 17.1505 10.875 17.25 10.875H18.75C18.8495 10.875 18.9448 10.9145 19.0152 10.9848C19.0855 11.0552 19.125 11.1505 19.125 11.25C19.125 11.3495 19.0855 11.4448 19.0152 11.5152C18.9448 11.5855 18.8495 11.625 18.75 11.625ZM19.5 10.125H17.25C17.1505 10.125 17.0552 10.0855 16.9848 10.0152C16.9145 9.94484 16.875 9.84946 16.875 9.75C16.875 9.65054 16.9145 9.55516 16.9848 9.48483C17.0552 9.41451 17.1505 9.375 17.25 9.375H19.5C19.5995 9.375 19.6948 9.41451 19.7652 9.48483C19.8355 9.55516 19.875 9.65054 19.875 9.75C19.875 9.84946 19.8355 9.94484 19.7652 10.0152C19.6948 10.0855 19.5995 10.125 19.5 10.125ZM18.75 8.625H17.25C17.1505 8.625 17.0552 8.58549 16.9848 8.51517C16.9145 8.44484 16.875 8.34946 16.875 8.25C16.875 8.15054 16.9145 8.05516 16.9848 7.98483C17.0552 7.91451 17.1505 7.875 17.25 7.875H18.75C18.8495 7.875 18.9448 7.91451 19.0152 7.98483C19.0855 8.05516 19.125 8.15054 19.125 8.25C19.125 8.34946 19.0855 8.44484 19.0152 8.51517C18.9448 8.58549 18.8495 8.625 18.75 8.625ZM19.5 7.125H17.25C17.1505 7.125 17.0552 7.08549 16.9848 7.01517C16.9145 6.94484 16.875 6.84946 16.875 6.75C16.875 6.65054 16.9145 6.55516 16.9848 6.48483C17.0552 6.41451 17.1505 6.375 17.25 6.375H19.5C19.5995 6.375 19.6948 6.41451 19.7652 6.48483C19.8355 6.55516 19.875 6.65054 19.875 6.75C19.875 6.84946 19.8355 6.94484 19.7652 7.01517C19.6948 7.08549 19.5995 7.125 19.5 7.125ZM18.75 5.625H17.25C17.1505 5.625 17.0552 5.58549 16.9848 5.51516C16.9145 5.44484 16.875 5.34946 16.875 5.25C16.875 5.15054 16.9145 5.05516 16.9848 4.98484C17.0552 4.91451 17.1505 4.875 17.25 4.875H18.75C18.8495 4.875 18.9448 4.91451 19.0152 4.98484C19.0855 5.05516 19.125 5.15054 19.125 5.25C19.125 5.34946 19.0855 5.44484 19.0152 5.51516C18.9448 5.58549 18.8495 5.625 18.75 5.625ZM19.5 4.125H17.25C17.1505 4.125 17.0552 4.08549 16.9848 4.01516C16.9145 3.94484 16.875 3.84946 16.875 3.75C16.875 3.65054 16.9145 3.55516 16.9848 3.48484C17.0552 3.41451 17.1505 3.375 17.25 3.375H19.5C19.5995 3.375 19.6948 3.41451 19.7652 3.48484C19.8355 3.55516 19.875 3.65054 19.875 3.75C19.875 3.84946 19.8355 3.94484 19.7652 4.01516C19.6948 4.08549 19.5995 4.125 19.5 4.125ZM18.75 2.625H17.25C17.1505 2.625 17.0552 2.58549 16.9848 2.51516C16.9145 2.44484 16.875 2.34946 16.875 2.25C16.875 2.15054 16.9145 2.05516 16.9848 1.98484C17.0552 1.91451 17.1505 1.875 17.25 1.875H18.75C18.8495 1.875 18.9448 1.91451 19.0152 1.98484C19.0855 2.05516 19.125 2.15054 19.125 2.25C19.125 2.34946 19.0855 2.44484 19.0152 2.51516C18.9448 2.58549 18.8495 2.625 18.75 2.625Z" fill="#00AEEF"/>
<path d="M15 19.125C15.0003 19.3884 14.9312 19.6472 14.7997 19.8754C14.6682 20.1036 14.479 20.2931 14.251 20.425C14.023 20.5569 13.7643 20.6264 13.501 20.6265C13.2376 20.6267 12.9788 20.5575 12.7507 20.426C12.5225 20.2944 12.333 20.1051 12.2013 19.877C12.0695 19.649 12.0001 19.3903 12 19.1269C11.9999 18.8636 12.0692 18.6048 12.2009 18.3767C12.3325 18.1486 12.5219 17.9592 12.75 17.8275V3.375C12.75 3.17609 12.829 2.98532 12.9697 2.84467C13.1103 2.70402 13.3011 2.625 13.5 2.625C13.6989 2.625 13.8897 2.70402 14.0303 2.84467C14.171 2.98532 14.25 3.17609 14.25 3.375V17.8275C14.4783 17.9584 14.6679 18.1474 14.7997 18.3753C14.9314 18.6032 15.0005 18.8618 15 19.125Z" fill="#ED1C24"/>
</svg>
