<svg width="36" height="36" viewBox="0 0 36 36" fill="none" xmlns="http://www.w3.org/2000/svg">
<path d="M26.5581 18.0568C26.3011 17.2927 25.6073 16.7139 24.6542 16.7139C15.9281 16.9253 9.86177 25.5799 12.4811 33.7879C12.6081 34.1856 13.152 34.2322 13.3459 33.8625C16.2566 28.3119 18.4489 25.859 18.544 25.5443C18.79 24.7268 18.7904 23.8795 18.5454 23.094C18.4681 22.8462 18.6062 22.5827 18.854 22.5054C19.102 22.4279 19.3653 22.5664 19.4426 22.8141C19.5709 23.2253 19.6441 23.6497 19.6633 24.0784C20.5542 22.9344 21.482 21.82 22.4423 20.7418C22.6149 20.5479 22.912 20.5308 23.1058 20.7035C23.2997 20.8761 23.3169 21.1732 23.1442 21.3669C21.6277 23.0696 20.1934 24.8638 18.8598 26.7235C19.6114 26.547 20.3713 26.5726 21.1019 26.7958C21.3416 26.8691 21.4929 27.1177 21.4327 27.361C21.3673 27.6255 21.0942 27.7774 20.8377 27.6979C19.8403 27.3898 18.8317 27.5696 17.9463 28.1045C17.8888 28.1393 17.8401 28.187 17.8025 28.2427C16.4578 30.2352 15.1802 32.3682 13.997 34.6475C13.8327 34.9639 14.0676 35.3422 14.4241 35.3344C23.2502 35.1406 29.3395 26.319 26.5581 18.0568Z" fill="white"/>
<path d="M8.69301 23.0941C8.76997 22.8461 8.63192 22.583 8.38402 22.5054C8.1367 22.4279 7.87294 22.5665 7.7954 22.8138C7.66792 23.2227 7.59449 23.6451 7.57511 24.0715C6.68454 22.9284 5.75756 21.8175 4.79532 20.7413C4.62261 20.5475 4.32537 20.5311 4.13151 20.7043C3.93824 20.877 3.92179 21.1743 4.0945 21.3675C5.61481 23.0682 7.04758 24.8575 8.38402 26.7239C7.63532 26.5468 6.865 26.5712 6.12353 26.7997C5.87504 26.8766 5.73641 27.1398 5.81278 27.3877C5.88973 27.6356 6.1529 27.7748 6.40081 27.6979C7.44769 27.3756 8.48958 27.5907 9.38267 28.1614C9.89933 28.9253 10.3992 29.7007 10.8819 30.4874C10.9224 30.5534 10.9454 30.6285 10.9501 30.7059C11.0273 31.9876 11.2863 33.2824 11.757 34.5834C11.8776 34.9167 11.6011 35.2594 11.2503 35.2099C3.31297 34.0903 -1.93942 25.8431 0.679695 18.0568C0.937054 17.2936 1.63035 16.7139 2.58419 16.7139C6.72226 16.8141 10.4995 18.8621 12.8804 22.1871C12.9884 22.338 12.9984 22.5388 12.904 22.6986C11.986 24.2512 11.3936 25.9189 11.1142 27.5976C11.0444 28.0167 10.4971 28.1334 10.2606 27.7804C9.311 26.363 8.71375 25.593 8.69419 25.5444C8.4481 24.7266 8.44811 23.8795 8.69301 23.0941Z" fill="white"/>
<path d="M8.78758 12.4255C8.90704 12.2066 9.03677 11.9949 9.17324 11.7957C9.28307 11.6354 9.50181 11.5945 9.66191 11.7045C9.82201 11.8141 9.86294 12.0331 9.75318 12.1931C9.63013 12.3729 9.51278 12.5645 9.4045 12.7623C9.34073 12.8792 9.22014 12.9457 9.09576 12.9457C8.83335 12.9458 8.65834 12.6622 8.78758 12.4255ZM7.63136 10.2856C7.7189 10.2856 7.80665 10.2527 7.87485 10.1871C8.03481 10.0337 8.20434 9.88691 8.37843 9.75156C8.53171 9.63238 8.55941 9.41181 8.4403 9.25838C8.32113 9.10496 8.10027 9.07733 7.94699 9.19651C7.75356 9.34698 7.56541 9.50961 7.38787 9.68012C7.15837 9.90055 7.3184 10.2856 7.63136 10.2856ZM8.00725 14.4806C7.95156 14.7203 7.90642 14.9636 7.87323 15.2036C7.84406 15.414 8.01048 15.6032 8.22184 15.6032C8.39467 15.6032 8.54528 15.4758 8.56961 15.2997C8.59998 15.0808 8.64098 14.8588 8.69202 14.6402C8.73618 14.4512 8.61848 14.262 8.42941 14.2179C8.24055 14.1741 8.05134 14.2916 8.00725 14.4806ZM10.0043 8.81858C10.0429 8.81858 10.0822 8.81232 10.1208 8.79882C10.329 8.72541 10.5434 8.66319 10.7582 8.61348C11.2091 8.50913 11.0506 7.82408 10.5997 7.9287C10.3598 7.98404 10.1204 8.05344 9.88783 8.13514C9.51616 8.26578 9.6127 8.81858 10.0043 8.81858ZM10.9479 10.868C11.0118 10.868 11.0765 10.8505 11.1344 10.814C11.3194 10.6981 11.5094 10.603 11.6995 10.5308C11.8811 10.462 11.9725 10.2592 11.9039 10.0775C11.8351 9.89612 11.6321 9.80457 11.4506 9.87341C11.2172 9.96165 10.985 10.0779 10.7609 10.2184C10.4618 10.4062 10.5982 10.868 10.9479 10.868ZM30.7119 7.79068C31.3194 8.62142 31.0732 9.78805 30.1818 10.3027L23.688 14.0519C22.7975 14.5659 21.6647 14.1999 21.2474 13.2549L20.8542 12.3643L15.2783 10.8703C14.7345 11.3114 14.0021 11.4725 13.3194 11.2894C13.1321 11.2393 13.0207 11.0461 13.0707 10.8587L14.0278 7.28724C14.0781 7.09993 14.2706 6.98863 14.4583 7.03869C15.1409 7.22171 15.6948 7.72712 15.9451 8.38123L19.5183 9.33861L18.4954 7.02252C18.1388 6.21491 18.4464 5.273 19.211 4.83151L21.5186 3.49916L21.3038 3.12713C21.0722 2.72607 21.6812 2.37465 21.9127 2.7755L22.1277 3.14752L24.4355 1.81545C25.1999 1.37396 26.1695 1.57843 26.6905 2.29084L26.7564 2.38105L28.3295 1.47268C28.9955 1.088 29.852 1.31757 30.2365 1.98364L31.1318 3.53445C31.5163 4.20052 31.2869 5.057 30.6208 5.44168L29.477 6.10177L30.7119 7.79068ZM29.0595 5.53119L30.2692 4.83256C30.5987 4.64244 30.7131 4.2155 30.5229 3.88602L29.6276 2.33534C29.4373 2.00572 29.0106 1.89132 28.681 2.08187L27.1737 2.95199L29.0595 5.53119ZM6.0513 12.5889C6.18855 12.5889 6.31877 12.5082 6.37537 12.3739C6.46164 12.1691 6.55931 11.967 6.66534 11.7724C6.75829 11.6022 6.69543 11.3885 6.52513 11.2953C6.35463 11.2025 6.14095 11.265 6.04799 11.4356C5.93071 11.6506 5.82278 11.8745 5.72751 12.1006C5.62935 12.3336 5.80513 12.5889 6.0513 12.5889ZM5.4947 15.3267C5.68799 15.3267 5.84514 15.1703 5.84613 14.9768C5.84732 14.7542 5.85927 14.5296 5.88177 14.3091C5.90146 14.1161 5.76091 13.9433 5.56769 13.9235C5.37468 13.9041 5.20192 14.0443 5.18223 14.2376C5.15741 14.4806 5.1442 14.7279 5.14307 14.9731C5.14209 15.1681 5.29973 15.3267 5.4947 15.3267Z" fill="white"/>
</svg>
