<svg width="50" height="50" viewBox="0 0 50 50" fill="none" xmlns="http://www.w3.org/2000/svg">
<rect width="50" height="50" rx="25" fill="#B4F4FF"/>
<path d="M25 16.097L20.0503 21.0467C17.3166 23.7804 17.3166 28.2125 20.0503 30.9462C22.7839 33.6799 27.2161 33.6799 29.9497 30.9462C32.6834 28.2125 32.6834 23.7804 29.9497 21.0467L25 16.097ZM25 13.2686L31.364 19.6325C34.8787 23.1472 34.8787 28.8457 31.364 32.3604C27.8492 35.8751 22.1508 35.8751 18.636 32.3604C15.1213 28.8457 15.1213 23.1472 18.636 19.6325L25 13.2686ZM25 30.9964V20.9965C27.7614 20.9965 30 23.235 30 25.9964C30 28.7579 27.7614 30.9964 25 30.9964Z" fill="#2114D4"/>
</svg>
