<svg width="29" height="28" viewBox="0 0 29 28" fill="none" xmlns="http://www.w3.org/2000/svg">
<path d="M13.4752 0.493909C13.8616 -0.165074 14.8142 -0.165073 15.2006 0.49391L19.3081 7.50001C19.449 7.74049 19.684 7.91121 19.9563 7.97098L27.8888 9.71244C28.6349 9.87624 28.9293 10.7823 28.4219 11.3533L23.028 17.4248C22.8429 17.6332 22.7531 17.9094 22.7804 18.1869L23.5755 26.2692C23.6503 27.0295 22.8795 27.5894 22.1796 27.2834L14.7385 24.0296C14.4831 23.918 14.1927 23.918 13.9373 24.0296L6.49614 27.2834C5.79624 27.5894 5.02553 27.0295 5.10031 26.2692L5.89535 18.1869C5.92264 17.9094 5.83289 17.6332 5.64775 17.4248L0.253836 11.3533C-0.253507 10.7823 0.0408803 9.87624 0.786998 9.71244L8.71948 7.97098C8.99176 7.91121 9.22673 7.74049 9.36772 7.50001L13.4752 0.493909Z" fill="#589C68"/>
</svg>
